<?xml version="1.0" encoding="UTF-8" standalone="no"?>
<!-- Created with Inkscape (http://www.inkscape.org/) -->

<svg
   xmlns:dc="http://purl.org/dc/elements/1.1/"
   xmlns:cc="http://creativecommons.org/ns#"
   xmlns:rdf="http://www.w3.org/1999/02/22-rdf-syntax-ns#"
   xmlns:svg="http://www.w3.org/2000/svg"
   xmlns="http://www.w3.org/2000/svg"
   xmlns:sodipodi="http://sodipodi.sourceforge.net/DTD/sodipodi-0.dtd"
   xmlns:inkscape="http://www.inkscape.org/namespaces/inkscape"
   width="298.86288mm"
   height="39.196301mm"
   viewBox="0 0 298.86289 39.196301"
   version="1.1"
   id="svg4801"
   inkscape:version="0.92.5 (2060ec1f9f, 2020-04-08)"
   sodipodi:docname="studio-logo-youchoose.svg">
  <defs
     id="defs4795" />
  <sodipodi:namedview
     id="base"
     pagecolor="#ffffff"
     bordercolor="#666666"
     borderopacity="1.0"
     inkscape:pageopacity="0.0"
     inkscape:pageshadow="2"
     inkscape:zoom="1.4"
     inkscape:cx="780.51717"
     inkscape:cy="-90.830133"
     inkscape:document-units="mm"
     inkscape:current-layer="layer1"
     showgrid="false"
     inkscape:window-width="3840"
     inkscape:window-height="2123"
     inkscape:window-x="1920"
     inkscape:window-y="0"
     inkscape:window-maximized="1" />
  <metadata
     id="metadata4798">
    <rdf:RDF>
      <cc:Work
         rdf:about="">
        <dc:format>image/svg+xml</dc:format>
        <dc:type
           rdf:resource="http://purl.org/dc/dcmitype/StillImage" />
        <dc:title></dc:title>
      </cc:Work>
    </rdf:RDF>
  </metadata>
  <g
     inkscape:label="Layer 1"
     inkscape:groupmode="layer"
     id="layer1"
     transform="translate(345.13221,-270.59828)">
    <path
       inkscape:connector-curvature="0"
       id="path887-5-1-3-3"
       style="font-style:normal;font-variant:normal;font-weight:bold;font-stretch:semi-condensed;font-size:40px;line-height:1.25;font-family:'Trade Gothic LT Std';-inkscape-font-specification:'Trade Gothic LT Std Bold Semi-Condensed';letter-spacing:0px;word-spacing:0px;fill:#000000;fill-opacity:1;stroke:none;stroke-width:1.32063055"
       d="m -262.04062,271.12641 h -7.76531 l 10.40657,22.71482 v 15.42499 h 7.28984 v -15.42499 l 10.40657,-22.71482 h -7.76531 l -6.18053,15.37216 z" />
    <path
       inkscape:connector-curvature="0"
       id="path889-9-5-5-6"
       style="font-style:normal;font-variant:normal;font-weight:bold;font-stretch:semi-condensed;font-size:40px;line-height:1.25;font-family:'Trade Gothic LT Std';-inkscape-font-specification:'Trade Gothic LT Std Bold Semi-Condensed';letter-spacing:0px;word-spacing:0px;fill:#000000;fill-opacity:1;stroke:none;stroke-width:1.32063055"
       d="m -242.79377,298.91246 c 0,7.60685 3.90904,10.882 10.56499,10.882 6.65601,0 10.56506,-3.27515 10.56506,-10.882 v -8.02943 c 0,-7.60679 -3.90905,-10.88194 -10.56506,-10.88194 -6.65595,0 -10.56499,3.27515 -10.56499,10.88194 z m 6.65595,-9.7198 c 0,-2.21867 1.58472,-3.3808 3.90904,-3.3808 2.32432,0 3.9091,1.16213 3.9091,3.3808 v 11.41023 c 0,2.21867 -1.58478,3.3808 -3.9091,3.3808 -2.32432,0 -3.90904,-1.16213 -3.90904,-3.3808 z" />
    <path
       inkscape:connector-curvature="0"
       id="path891-2-5-6-7"
       style="font-style:normal;font-variant:normal;font-weight:bold;font-stretch:semi-condensed;font-size:40px;line-height:1.25;font-family:'Trade Gothic LT Std';-inkscape-font-specification:'Trade Gothic LT Std Bold Semi-Condensed';letter-spacing:0px;word-spacing:0px;fill:#000000;fill-opacity:1;stroke:none;stroke-width:1.32063055"
       d="m -204.62638,280.52933 v 21.71117 c -1.42631,1.26778 -2.95821,2.58838 -4.33169,2.58838 -1.79602,0 -2.42997,-1.26778 -2.42997,-3.1695 v -21.13005 h -6.65595 v 21.86964 c 0,5.33535 2.11302,7.39549 6.18054,7.39549 2.74691,0 5.0184,-1.69037 7.44837,-3.80339 v 3.27515 h 6.44465 v -28.73689 z" />
    <path
       inkscape:connector-curvature="0"
       id="path893-2-4-2-53"
       style="font-style:normal;font-variant:normal;font-weight:bold;font-stretch:semi-condensed;font-size:40px;line-height:1.25;font-family:'Trade Gothic LT Std';-inkscape-font-specification:'Trade Gothic LT Std Bold Semi-Condensed';letter-spacing:0px;word-spacing:0px;fill:#000000;fill-opacity:1;stroke:none;stroke-width:1.32063055"
       d="m -184.13961,282.431 c 0,-4.22599 1.84891,-5.38812 4.75429,-5.38812 2.90567,0 4.75452,1.16213 4.75452,5.38812 v 1.05654 h 7.28984 v -0.10553 c 0,-9.40287 -4.96552,-12.78373 -12.04436,-12.78373 -7.07855,0 -12.04413,3.38086 -12.04413,12.78373 v 13.6289 c 0,9.40287 4.96558,12.78367 12.04413,12.78367 7.07884,0 12.04436,-3.3808 12.04436,-12.78367 v -1.58478 h -7.28984 v 2.53562 c 0,4.22604 -1.84885,5.38817 -4.75452,5.38817 -2.90538,0 -4.75429,-1.16213 -4.75429,-5.38817 z" />
    <path
       inkscape:connector-curvature="0"
       id="path895-8-7-9-5"
       style="font-style:normal;font-variant:normal;font-weight:bold;font-stretch:semi-condensed;font-size:40px;line-height:1.25;font-family:'Trade Gothic LT Std';-inkscape-font-specification:'Trade Gothic LT Std Bold Semi-Condensed';letter-spacing:0px;word-spacing:0px;fill:#000000;fill-opacity:1;stroke:none;stroke-width:1.32063055"
       d="m -156.33472,309.26622 v -21.71117 c 1.42631,-1.26778 2.95822,-2.58844 4.33171,-2.58844 1.79601,0 2.4299,1.26784 2.4299,3.16951 v 21.1301 h 6.65602 v -21.86964 c 0,-5.33535 -2.11301,-7.39549 -6.18054,-7.39549 -2.74692,0 -5.01841,1.69037 -7.23709,3.80339 v -12.67807 h -6.65595 v 38.13981 z" />
    <path
       inkscape:connector-curvature="0"
       id="path897-9-6-1-62"
       style="font-style:normal;font-variant:normal;font-weight:bold;font-stretch:semi-condensed;font-size:40px;line-height:1.25;font-family:'Trade Gothic LT Std';-inkscape-font-specification:'Trade Gothic LT Std Bold Semi-Condensed';letter-spacing:0px;word-spacing:0px;fill:#000000;fill-opacity:1;stroke:none;stroke-width:1.32063055"
       d="m -139.29718,298.91246 c 0,7.60685 3.90909,10.882 10.56506,10.882 6.65601,0 10.56504,-3.27515 10.56504,-10.882 v -8.02943 c 0,-7.60679 -3.90903,-10.88194 -10.56504,-10.88194 -6.65597,0 -10.56506,3.27515 -10.56506,10.88194 z m 6.656,-9.7198 c 0,-2.21867 1.58474,-3.3808 3.90906,-3.3808 2.32426,0 3.90904,1.16213 3.90904,3.3808 v 11.41023 c 0,2.21867 -1.58478,3.3808 -3.90904,3.3808 -2.32432,0 -3.90906,-1.16213 -3.90906,-3.3808 z" />
    <path
       inkscape:connector-curvature="0"
       id="path899-7-5-2-9"
       style="font-style:normal;font-variant:normal;font-weight:bold;font-stretch:semi-condensed;font-size:40px;line-height:1.25;font-family:'Trade Gothic LT Std';-inkscape-font-specification:'Trade Gothic LT Std Bold Semi-Condensed';letter-spacing:0px;word-spacing:0px;fill:#000000;fill-opacity:1;stroke:none;stroke-width:1.32063055"
       d="m -114.3452,298.91246 c 0,7.60685 3.90909,10.882 10.56505,10.882 6.656023,0 10.565063,-3.27515 10.565063,-10.882 v -8.02943 c 0,-7.60679 -3.90904,-10.88194 -10.565063,-10.88194 -6.65596,0 -10.56505,3.27515 -10.56505,10.88194 z m 6.65601,-9.7198 c 0,-2.21867 1.58473,-3.3808 3.90904,-3.3808 2.32433,0 3.909043,1.16213 3.909043,3.3808 v 11.41023 c 0,2.21867 -1.584713,3.3808 -3.909043,3.3808 -2.32431,0 -3.90904,-1.16213 -3.90904,-3.3808 z" />
    <path
       inkscape:connector-curvature="0"
       id="path901-3-6-7-1"
       style="font-style:normal;font-variant:normal;font-weight:bold;font-stretch:semi-condensed;font-size:40px;line-height:1.25;font-family:'Trade Gothic LT Std';-inkscape-font-specification:'Trade Gothic LT Std Bold Semi-Condensed';letter-spacing:0px;word-spacing:0px;fill:#000000;fill-opacity:1;stroke:none;stroke-width:1.32063055"
       d="m -70.693067,287.18528 c -1.63756,-4.33169 -5.07125,-7.18419 -10.03676,-7.18419 -4.70146,0 -9.08599,2.58838 -9.08599,8.02938 0,9.66704 12.99502,8.34644 12.99502,13.84026 0,1.58472 -1.21496,2.53556 -3.22233,2.53556 -2.64125,0 -4.27879,-1.7432 -4.85986,-4.43729 l -5.9693,1.63755 c 3.22232,7.18425 6.81442,8.18791 10.82916,8.18791 5.54667,0 9.56141,-3.01103 9.56141,-8.71615 0,-8.55768 -12.99502,-8.66333 -12.99502,-13.10067 0,-1.47907 1.16212,-2.58844 2.69408,-2.58844 2.00739,0 3.69776,1.26784 4.59575,3.9091 z" />
    <path
       inkscape:connector-curvature="0"
       id="path903-6-9-0-27"
       style="font-style:normal;font-variant:normal;font-weight:bold;font-stretch:semi-condensed;font-size:40px;line-height:1.25;font-family:'Trade Gothic LT Std';-inkscape-font-specification:'Trade Gothic LT Std Bold Semi-Condensed';letter-spacing:0px;word-spacing:0px;fill:#000000;fill-opacity:1;stroke:none;stroke-width:1.32063055"
       d="m -46.269327,296.4825 v -6.70878 c 0,-5.86359 -4.38447,-9.77263 -10.565,-9.77263 -6.33907,0 -10.56505,3.90904 -10.56505,10.19522 v 9.40293 c 0,6.28618 4.22598,10.19522 10.56505,10.19522 6.70877,0 10.24811,-3.48645 10.565,-9.40286 h -6.65597 c 0,2.21867 -1.10929,4.01469 -3.90903,4.01469 -2.21869,0 -3.90911,-1.26778 -3.90911,-4.12034 v -3.80345 z m -14.47411,-5.38818 v -1.58472 c 0,-2.53561 1.21502,-4.1204 3.90911,-4.1204 2.69407,0 3.90903,1.58479 3.90903,4.1204 v 1.58472 z" />
    <path
       style="color:#000000;font-style:normal;font-variant:normal;font-weight:normal;font-stretch:normal;font-size:medium;line-height:normal;font-family:sans-serif;font-variant-ligatures:normal;font-variant-position:normal;font-variant-caps:normal;font-variant-numeric:normal;font-variant-alternates:normal;font-feature-settings:normal;text-indent:0;text-align:start;text-decoration:none;text-decoration-line:none;text-decoration-style:solid;text-decoration-color:#000000;letter-spacing:normal;word-spacing:normal;text-transform:none;writing-mode:lr-tb;direction:ltr;text-orientation:mixed;dominant-baseline:auto;baseline-shift:baseline;text-anchor:start;white-space:normal;shape-padding:0;clip-rule:nonzero;display:inline;overflow:visible;visibility:visible;opacity:1;isolation:auto;mix-blend-mode:normal;color-interpolation:sRGB;color-interpolation-filters:linearRGB;solid-color:#000000;solid-opacity:1;vector-effect:none;fill:#e33180;fill-opacity:1;fill-rule:nonzero;stroke:none;stroke-width:2.53456783;stroke-linecap:butt;stroke-linejoin:round;stroke-miterlimit:4;stroke-dasharray:none;stroke-dashoffset:0;stroke-opacity:1;color-rendering:auto;image-rendering:auto;shape-rendering:auto;text-rendering:auto;enable-background:accumulate"
       d="m -306.62916,281.85873 c -0.69706,0.002 -1.26162,0.56661 -1.26367,1.26367 l -0.0293,14.40625 c -0.002,0.97964 1.06016,1.59145 1.90625,1.09766 l 12.80468,-7.46875 c 0.85164,-0.49789 0.83303,-1.73499 -0.0332,-2.20704 l -12.77539,-6.93945 c -0.18713,-0.10111 -0.39668,-0.1535 -0.60937,-0.15234 z"
       id="path876-3-5-6-6"
       inkscape:connector-curvature="0"
       sodipodi:nodetypes="cccccccc" />
    <path
       inkscape:connector-curvature="0"
       id="path882-3-3-6-5-6"
       d="m -302.93776,271.36459 c -3.73303,0.36454 -6.44613,2.37377 -8.60156,4.72071 -4.31088,4.69387 -6.99094,10.59116 -13.97852,12.35351 -1.66958,0.42048 -1.69523,2.78363 -0.0352,3.24024 6.99529,1.92138 9.65735,7.81571 13.99219,12.47265 2.16741,2.32847 4.90423,4.30365 8.66211,4.65625 3.75787,0.3526 7.22997,-0.56307 12.65552,-3.37739 l -0.006,-3.6083 c -5.81446,3.09397 -9.54259,3.91198 -12.33737,3.64975 -2.79479,-0.26223 -4.63776,-1.57981 -6.52149,-3.60351 -3.10731,-3.33819 -5.96402,-8.68079 -11.59962,-11.76758 5.65559,-2.99916 8.53621,-8.37207 11.63672,-11.74804 1.8812,-2.04833 3.7099,-3.38409 6.45703,-3.65235 2.74713,-0.26826 6.56544,0.56276 12.29758,3.70036 -0.35034,-1.67754 0.035,-2.5898 0.45044,-3.49114 -6.05555,-3.31463 -9.3392,-3.90969 -13.07222,-3.54516 z"
       style="color:#000000;font-style:normal;font-variant:normal;font-weight:normal;font-stretch:normal;font-size:medium;line-height:normal;font-family:sans-serif;font-variant-ligatures:normal;font-variant-position:normal;font-variant-caps:normal;font-variant-numeric:normal;font-variant-alternates:normal;font-feature-settings:normal;text-indent:0;text-align:start;text-decoration:none;text-decoration-line:none;text-decoration-style:solid;text-decoration-color:#000000;letter-spacing:normal;word-spacing:normal;text-transform:none;writing-mode:lr-tb;direction:ltr;text-orientation:mixed;dominant-baseline:auto;baseline-shift:baseline;text-anchor:start;white-space:normal;shape-padding:0;clip-rule:nonzero;display:inline;overflow:visible;visibility:visible;opacity:1;isolation:auto;mix-blend-mode:normal;color-interpolation:sRGB;color-interpolation-filters:linearRGB;solid-color:#000000;solid-opacity:1;vector-effect:none;fill:#000000;fill-opacity:0.94117647;fill-rule:nonzero;stroke:none;stroke-width:3.3506279;stroke-linecap:butt;stroke-linejoin:round;stroke-miterlimit:4;stroke-dasharray:none;stroke-dashoffset:0;stroke-opacity:1;color-rendering:auto;image-rendering:auto;shape-rendering:auto;text-rendering:auto;enable-background:accumulate"
       sodipodi:nodetypes="csccssccsscsscccc" />
    <path
       sodipodi:nodetypes="ccccccccc"
       inkscape:connector-curvature="0"
       id="path876-3-5-6-2-26"
       d="m -289.03932,297.36655 c -0.67336,0.0116 -1.21307,0.56092 -1.21289,1.23437 l 0.006,8.79883 c 0.001,0.95566 1.04105,1.54761 1.86328,1.06055 l 7.86718,-4.66211 c 0.83083,-0.49222 0.80004,-1.70487 -0.0547,-2.1543 l -7.87304,-4.13672 c -0.18361,-0.0961 -0.38848,-0.14451 -0.59571,-0.14062 z"
       style="color:#000000;font-style:normal;font-variant:normal;font-weight:normal;font-stretch:normal;font-size:medium;line-height:normal;font-family:sans-serif;font-variant-ligatures:normal;font-variant-position:normal;font-variant-caps:normal;font-variant-numeric:normal;font-variant-alternates:normal;font-feature-settings:normal;text-indent:0;text-align:start;text-decoration:none;text-decoration-line:none;text-decoration-style:solid;text-decoration-color:#000000;letter-spacing:normal;word-spacing:normal;text-transform:none;writing-mode:lr-tb;direction:ltr;text-orientation:mixed;dominant-baseline:auto;baseline-shift:baseline;text-anchor:start;white-space:normal;shape-padding:0;clip-rule:nonzero;display:inline;overflow:visible;visibility:visible;opacity:1;isolation:auto;mix-blend-mode:normal;color-interpolation:sRGB;color-interpolation-filters:linearRGB;solid-color:#000000;solid-opacity:1;vector-effect:none;fill:#070707;fill-opacity:1;fill-rule:nonzero;stroke:none;stroke-width:2.4682343;stroke-linecap:butt;stroke-linejoin:round;stroke-miterlimit:4;stroke-dasharray:none;stroke-dashoffset:0;stroke-opacity:1;color-rendering:auto;image-rendering:auto;shape-rendering:auto;text-rendering:auto;enable-background:accumulate" />
    <path
       sodipodi:nodetypes="sssss"
       inkscape:connector-curvature="0"
       id="path1095-1"
       d="m -285.45729,272.22983 c -2.75827,0 -5,2.24368 -5,5.00195 0,2.75827 2.24173,5 5,5 2.75826,0 5.00195,-2.24173 5.00195,-5 0,-2.75827 -2.24369,-5.00195 -5.00195,-5.00195 z"
       style="color:#000000;font-style:normal;font-variant:normal;font-weight:normal;font-stretch:normal;font-size:medium;line-height:normal;font-family:sans-serif;font-variant-ligatures:normal;font-variant-position:normal;font-variant-caps:normal;font-variant-numeric:normal;font-variant-alternates:normal;font-feature-settings:normal;text-indent:0;text-align:start;text-decoration:none;text-decoration-line:none;text-decoration-style:solid;text-decoration-color:#000000;letter-spacing:normal;word-spacing:normal;text-transform:none;writing-mode:lr-tb;direction:ltr;text-orientation:mixed;dominant-baseline:auto;baseline-shift:baseline;text-anchor:start;white-space:normal;shape-padding:0;clip-rule:nonzero;display:inline;overflow:visible;visibility:visible;opacity:1;isolation:auto;mix-blend-mode:normal;color-interpolation:sRGB;color-interpolation-filters:linearRGB;solid-color:#000000;solid-opacity:1;vector-effect:none;fill:#000000;fill-opacity:1;fill-rule:nonzero;stroke:none;stroke-width:0.64712799;stroke-linecap:round;stroke-linejoin:round;stroke-miterlimit:4;stroke-dasharray:none;stroke-dashoffset:0;stroke-opacity:1;color-rendering:auto;image-rendering:auto;shape-rendering:auto;text-rendering:auto;enable-background:accumulate" />
    <path
       d="m -262.04062,271.12641 h -7.76531 l 10.40657,22.71482 v 15.42499 h 7.28984 v -15.42499 l 10.40657,-22.71482 h -7.76531 l -6.18053,15.37216 z"
       style="font-style:normal;font-variant:normal;font-weight:bold;font-stretch:semi-condensed;font-size:40px;line-height:1.25;font-family:'Trade Gothic LT Std';-inkscape-font-specification:'Trade Gothic LT Std Bold Semi-Condensed';letter-spacing:0px;word-spacing:0px;fill:#1a030e;fill-opacity:1;stroke:none;stroke-width:1.32063055"
       id="path4835"
       inkscape:connector-curvature="0" />
    <path
       d="m -242.79377,298.91246 c 0,7.60685 3.90904,10.882 10.56499,10.882 6.65601,0 10.56506,-3.27515 10.56506,-10.882 v -8.02943 c 0,-7.60679 -3.90905,-10.88194 -10.56506,-10.88194 -6.65595,0 -10.56499,3.27515 -10.56499,10.88194 z m 6.65595,-9.7198 c 0,-2.21867 1.58472,-3.3808 3.90904,-3.3808 2.32432,0 3.9091,1.16213 3.9091,3.3808 v 11.41023 c 0,2.21867 -1.58478,3.3808 -3.9091,3.3808 -2.32432,0 -3.90904,-1.16213 -3.90904,-3.3808 z"
       style="font-style:normal;font-variant:normal;font-weight:bold;font-stretch:semi-condensed;font-size:40px;line-height:1.25;font-family:'Trade Gothic LT Std';-inkscape-font-specification:'Trade Gothic LT Std Bold Semi-Condensed';letter-spacing:0px;word-spacing:0px;fill:#1a030e;fill-opacity:1;stroke:none;stroke-width:1.32063055"
       id="path4837"
       inkscape:connector-curvature="0" />
    <path
       d="m -204.62638,280.52933 v 21.71117 c -1.42631,1.26778 -2.95821,2.58838 -4.33169,2.58838 -1.79602,0 -2.42997,-1.26778 -2.42997,-3.1695 v -21.13005 h -6.65595 v 21.86964 c 0,5.33535 2.11302,7.39549 6.18054,7.39549 2.74691,0 5.0184,-1.69037 7.44837,-3.80339 v 3.27515 h 6.44465 v -28.73689 z"
       style="font-style:normal;font-variant:normal;font-weight:bold;font-stretch:semi-condensed;font-size:40px;line-height:1.25;font-family:'Trade Gothic LT Std';-inkscape-font-specification:'Trade Gothic LT Std Bold Semi-Condensed';letter-spacing:0px;word-spacing:0px;fill:#1a030e;fill-opacity:1;stroke:none;stroke-width:1.32063055"
       id="path4839"
       inkscape:connector-curvature="0" />
    <path
       d="m -184.13961,282.431 c 0,-4.22599 1.84891,-5.38812 4.75429,-5.38812 2.90567,0 4.75452,1.16213 4.75452,5.38812 v 1.05654 h 7.28984 v -0.10553 c 0,-9.40287 -4.96552,-12.78373 -12.04436,-12.78373 -7.07855,0 -12.04413,3.38086 -12.04413,12.78373 v 13.6289 c 0,9.40287 4.96558,12.78367 12.04413,12.78367 7.07884,0 12.04436,-3.3808 12.04436,-12.78367 v -1.58478 h -7.28984 v 2.53562 c 0,4.22604 -1.84885,5.38817 -4.75452,5.38817 -2.90538,0 -4.75429,-1.16213 -4.75429,-5.38817 z"
       style="font-style:normal;font-variant:normal;font-weight:bold;font-stretch:semi-condensed;font-size:40px;line-height:1.25;font-family:'Trade Gothic LT Std';-inkscape-font-specification:'Trade Gothic LT Std Bold Semi-Condensed';letter-spacing:0px;word-spacing:0px;fill:#1a030e;fill-opacity:1;stroke:none;stroke-width:1.32063055"
       id="path4841"
       inkscape:connector-curvature="0" />
    <path
       d="m -156.33472,309.26622 v -21.71117 c 1.42631,-1.26778 2.95822,-2.58844 4.33171,-2.58844 1.79601,0 2.4299,1.26784 2.4299,3.16951 v 21.1301 h 6.65602 v -21.86964 c 0,-5.33535 -2.11301,-7.39549 -6.18054,-7.39549 -2.74692,0 -5.01841,1.69037 -7.23709,3.80339 v -12.67807 h -6.65595 v 38.13981 z"
       style="font-style:normal;font-variant:normal;font-weight:bold;font-stretch:semi-condensed;font-size:40px;line-height:1.25;font-family:'Trade Gothic LT Std';-inkscape-font-specification:'Trade Gothic LT Std Bold Semi-Condensed';letter-spacing:0px;word-spacing:0px;fill:#1a030e;fill-opacity:1;stroke:none;stroke-width:1.32063055"
       id="path4843"
       inkscape:connector-curvature="0" />
    <path
       d="m -139.29718,298.91246 c 0,7.60685 3.90909,10.882 10.56506,10.882 6.65601,0 10.56504,-3.27515 10.56504,-10.882 v -8.02943 c 0,-7.60679 -3.90903,-10.88194 -10.56504,-10.88194 -6.65597,0 -10.56506,3.27515 -10.56506,10.88194 z m 6.656,-9.7198 c 0,-2.21867 1.58474,-3.3808 3.90906,-3.3808 2.32426,0 3.90904,1.16213 3.90904,3.3808 v 11.41023 c 0,2.21867 -1.58478,3.3808 -3.90904,3.3808 -2.32432,0 -3.90906,-1.16213 -3.90906,-3.3808 z"
       style="font-style:normal;font-variant:normal;font-weight:bold;font-stretch:semi-condensed;font-size:40px;line-height:1.25;font-family:'Trade Gothic LT Std';-inkscape-font-specification:'Trade Gothic LT Std Bold Semi-Condensed';letter-spacing:0px;word-spacing:0px;fill:#1a030e;fill-opacity:1;stroke:none;stroke-width:1.32063055"
       id="path4845"
       inkscape:connector-curvature="0" />
    <path
       d="m -114.3452,298.91246 c 0,7.60685 3.90909,10.882 10.56505,10.882 6.656023,0 10.565063,-3.27515 10.565063,-10.882 v -8.02943 c 0,-7.60679 -3.90904,-10.88194 -10.565063,-10.88194 -6.65596,0 -10.56505,3.27515 -10.56505,10.88194 z m 6.65601,-9.7198 c 0,-2.21867 1.58473,-3.3808 3.90904,-3.3808 2.32433,0 3.909043,1.16213 3.909043,3.3808 v 11.41023 c 0,2.21867 -1.584713,3.3808 -3.909043,3.3808 -2.32431,0 -3.90904,-1.16213 -3.90904,-3.3808 z"
       style="font-style:normal;font-variant:normal;font-weight:bold;font-stretch:semi-condensed;font-size:40px;line-height:1.25;font-family:'Trade Gothic LT Std';-inkscape-font-specification:'Trade Gothic LT Std Bold Semi-Condensed';letter-spacing:0px;word-spacing:0px;fill:#1a030e;fill-opacity:1;stroke:none;stroke-width:1.32063055"
       id="path4847"
       inkscape:connector-curvature="0" />
    <path
       d="m -70.693067,287.18528 c -1.63756,-4.33169 -5.07125,-7.18419 -10.03676,-7.18419 -4.70146,0 -9.08599,2.58838 -9.08599,8.02938 0,9.66704 12.99502,8.34644 12.99502,13.84026 0,1.58472 -1.21496,2.53556 -3.22233,2.53556 -2.64125,0 -4.27879,-1.7432 -4.85986,-4.43729 l -5.9693,1.63755 c 3.22232,7.18425 6.81442,8.18791 10.82916,8.18791 5.54667,0 9.56141,-3.01103 9.56141,-8.71615 0,-8.55768 -12.99502,-8.66333 -12.99502,-13.10067 0,-1.47907 1.16212,-2.58844 2.69408,-2.58844 2.00739,0 3.69776,1.26784 4.59575,3.9091 z"
       style="font-style:normal;font-variant:normal;font-weight:bold;font-stretch:semi-condensed;font-size:40px;line-height:1.25;font-family:'Trade Gothic LT Std';-inkscape-font-specification:'Trade Gothic LT Std Bold Semi-Condensed';letter-spacing:0px;word-spacing:0px;fill:#1a030e;fill-opacity:1;stroke:none;stroke-width:1.32063055"
       id="path4849"
       inkscape:connector-curvature="0" />
    <path
       d="m -46.269327,296.4825 v -6.70878 c 0,-5.86359 -4.38447,-9.77263 -10.565,-9.77263 -6.33907,0 -10.56505,3.90904 -10.56505,10.19522 v 9.40293 c 0,6.28618 4.22598,10.19522 10.56505,10.19522 6.70877,0 10.24811,-3.48645 10.565,-9.40286 h -6.65597 c 0,2.21867 -1.10929,4.01469 -3.90903,4.01469 -2.21869,0 -3.90911,-1.26778 -3.90911,-4.12034 v -3.80345 z m -14.47411,-5.38818 v -1.58472 c 0,-2.53561 1.21502,-4.1204 3.90911,-4.1204 2.69407,0 3.90903,1.58479 3.90903,4.1204 v 1.58472 z"
       style="font-style:normal;font-variant:normal;font-weight:bold;font-stretch:semi-condensed;font-size:40px;line-height:1.25;font-family:'Trade Gothic LT Std';-inkscape-font-specification:'Trade Gothic LT Std Bold Semi-Condensed';letter-spacing:0px;word-spacing:0px;fill:#1a030e;fill-opacity:1;stroke:none;stroke-width:1.32063055"
       id="path4851"
       inkscape:connector-curvature="0" />
    <path
       sodipodi:nodetypes="cccccccc"
       inkscape:connector-curvature="0"
       id="path4853"
       d="m -306.62916,281.85873 c -0.69706,0.002 -1.26162,0.56661 -1.26367,1.26367 l -0.0293,14.40625 c -0.002,0.97964 1.06016,1.59145 1.90625,1.09766 l 12.80468,-7.46875 c 0.85164,-0.49789 0.83303,-1.73499 -0.0332,-2.20704 l -12.77539,-6.93945 c -0.18713,-0.10111 -0.39668,-0.1535 -0.60937,-0.15234 z"
       style="color:#000000;font-style:normal;font-variant:normal;font-weight:normal;font-stretch:normal;font-size:medium;line-height:normal;font-family:sans-serif;font-variant-ligatures:normal;font-variant-position:normal;font-variant-caps:normal;font-variant-numeric:normal;font-variant-alternates:normal;font-feature-settings:normal;text-indent:0;text-align:start;text-decoration:none;text-decoration-line:none;text-decoration-style:solid;text-decoration-color:#000000;letter-spacing:normal;word-spacing:normal;text-transform:none;writing-mode:lr-tb;direction:ltr;text-orientation:mixed;dominant-baseline:auto;baseline-shift:baseline;text-anchor:start;white-space:normal;shape-padding:0;clip-rule:nonzero;display:inline;overflow:visible;visibility:visible;opacity:1;isolation:auto;mix-blend-mode:normal;color-interpolation:sRGB;color-interpolation-filters:linearRGB;solid-color:#000000;solid-opacity:1;vector-effect:none;fill:#1a030e;fill-opacity:1;fill-rule:nonzero;stroke:none;stroke-width:2.53456783;stroke-linecap:butt;stroke-linejoin:round;stroke-miterlimit:4;stroke-dasharray:none;stroke-dashoffset:0;stroke-opacity:1;color-rendering:auto;image-rendering:auto;shape-rendering:auto;text-rendering:auto;enable-background:accumulate" />
    <path
       sodipodi:nodetypes="cssccsssccsscsscccc"
       style="color:#000000;font-style:normal;font-variant:normal;font-weight:normal;font-stretch:normal;font-size:medium;line-height:normal;font-family:sans-serif;font-variant-ligatures:normal;font-variant-position:normal;font-variant-caps:normal;font-variant-numeric:normal;font-variant-alternates:normal;font-feature-settings:normal;text-indent:0;text-align:start;text-decoration:none;text-decoration-line:none;text-decoration-style:solid;text-decoration-color:#000000;letter-spacing:normal;word-spacing:normal;text-transform:none;writing-mode:lr-tb;direction:ltr;text-orientation:mixed;dominant-baseline:auto;baseline-shift:baseline;text-anchor:start;white-space:normal;shape-padding:0;clip-rule:nonzero;display:inline;overflow:visible;visibility:visible;opacity:1;isolation:auto;mix-blend-mode:normal;color-interpolation:sRGB;color-interpolation-filters:linearRGB;solid-color:#000000;solid-opacity:1;vector-effect:none;fill:#1a030e;fill-opacity:1;fill-rule:nonzero;stroke:none;stroke-width:3.3506279;stroke-linecap:butt;stroke-linejoin:round;stroke-miterlimit:4;stroke-dasharray:none;stroke-dashoffset:0;stroke-opacity:1;color-rendering:auto;image-rendering:auto;shape-rendering:auto;text-rendering:auto;enable-background:accumulate"
       d="m -302.93776,271.36459 c -3.73303,0.36454 -6.44612,2.37378 -8.60156,4.72071 -4.26017,4.63866 -6.92766,10.45259 -13.73371,12.28961 -0.081,0.0219 -19.82398,0.0639 -19.82398,0.0639 l -0.0352,3.24024 c 0,0 19.73002,0.042 19.80469,0.0637 6.82757,1.98502 9.47873,7.80234 13.76667,12.4089 2.16742,2.32847 4.90423,4.30365 8.66211,4.65625 3.75787,0.3526 7.22997,-0.56307 12.65552,-3.37739 l -0.006,-3.6083 c -5.81446,3.09397 -9.54259,3.91198 -12.33737,3.64975 -2.79479,-0.26223 -4.63776,-1.57981 -6.52149,-3.60351 -3.10731,-3.33819 -5.96402,-8.68079 -11.59962,-11.76758 5.65559,-2.99916 8.53621,-8.37207 11.63672,-11.74804 1.8812,-2.04833 3.7099,-3.38409 6.45703,-3.65235 2.74713,-0.26826 6.56544,0.56276 12.29758,3.70036 -0.35034,-1.67754 0.035,-2.5898 0.45044,-3.49114 -6.05555,-3.31463 -9.3392,-3.90969 -13.07222,-3.54516 z"
       id="path4855"
       inkscape:connector-curvature="0" />
    <path
       style="color:#000000;font-style:normal;font-variant:normal;font-weight:normal;font-stretch:normal;font-size:medium;line-height:normal;font-family:sans-serif;font-variant-ligatures:normal;font-variant-position:normal;font-variant-caps:normal;font-variant-numeric:normal;font-variant-alternates:normal;font-feature-settings:normal;text-indent:0;text-align:start;text-decoration:none;text-decoration-line:none;text-decoration-style:solid;text-decoration-color:#000000;letter-spacing:normal;word-spacing:normal;text-transform:none;writing-mode:lr-tb;direction:ltr;text-orientation:mixed;dominant-baseline:auto;baseline-shift:baseline;text-anchor:start;white-space:normal;shape-padding:0;clip-rule:nonzero;display:inline;overflow:visible;visibility:visible;opacity:1;isolation:auto;mix-blend-mode:normal;color-interpolation:sRGB;color-interpolation-filters:linearRGB;solid-color:#000000;solid-opacity:1;vector-effect:none;fill:#1a030e;fill-opacity:1;fill-rule:nonzero;stroke:none;stroke-width:2.4682343;stroke-linecap:butt;stroke-linejoin:round;stroke-miterlimit:4;stroke-dasharray:none;stroke-dashoffset:0;stroke-opacity:1;color-rendering:auto;image-rendering:auto;shape-rendering:auto;text-rendering:auto;enable-background:accumulate"
       d="m -289.03932,297.36655 c -0.67336,0.0116 -1.21307,0.56092 -1.21289,1.23437 l 0.006,8.79883 c 0.001,0.95566 1.04105,1.54761 1.86328,1.06055 l 7.86718,-4.66211 c 0.83083,-0.49222 0.80004,-1.70487 -0.0547,-2.1543 l -7.87304,-4.13672 c -0.18361,-0.0961 -0.38848,-0.14451 -0.59571,-0.14062 z"
       id="path4857"
       inkscape:connector-curvature="0"
       sodipodi:nodetypes="ccccccccc" />
    <path
       style="color:#000000;font-style:normal;font-variant:normal;font-weight:normal;font-stretch:normal;font-size:medium;line-height:normal;font-family:sans-serif;font-variant-ligatures:normal;font-variant-position:normal;font-variant-caps:normal;font-variant-numeric:normal;font-variant-alternates:normal;font-feature-settings:normal;text-indent:0;text-align:start;text-decoration:none;text-decoration-line:none;text-decoration-style:solid;text-decoration-color:#000000;letter-spacing:normal;word-spacing:normal;text-transform:none;writing-mode:lr-tb;direction:ltr;text-orientation:mixed;dominant-baseline:auto;baseline-shift:baseline;text-anchor:start;white-space:normal;shape-padding:0;clip-rule:nonzero;display:inline;overflow:visible;visibility:visible;opacity:1;isolation:auto;mix-blend-mode:normal;color-interpolation:sRGB;color-interpolation-filters:linearRGB;solid-color:#000000;solid-opacity:1;vector-effect:none;fill:#1a030e;fill-opacity:1;fill-rule:nonzero;stroke:none;stroke-width:0.64712799;stroke-linecap:round;stroke-linejoin:round;stroke-miterlimit:4;stroke-dasharray:none;stroke-dashoffset:0;stroke-opacity:1;color-rendering:auto;image-rendering:auto;shape-rendering:auto;text-rendering:auto;enable-background:accumulate"
       d="m -285.45729,272.22983 c -2.75827,0 -5,2.24368 -5,5.00195 0,2.75827 2.24173,5 5,5 2.75826,0 5.00195,-2.24173 5.00195,-5 0,-2.75827 -2.24369,-5.00195 -5.00195,-5.00195 z"
       id="path4859"
       inkscape:connector-curvature="0"
       sodipodi:nodetypes="sssss" />
  </g>
</svg>
