<?xml version="1.0" encoding="UTF-8" standalone="no"?>
<svg
   xmlns:dc="http://purl.org/dc/elements/1.1/"
   xmlns:cc="http://creativecommons.org/ns#"
   xmlns:rdf="http://www.w3.org/1999/02/22-rdf-syntax-ns#"
   xmlns:svg="http://www.w3.org/2000/svg"
   xmlns="http://www.w3.org/2000/svg"
   width="198.97485mm"
   height="26.45833mm"
   viewBox="0 0 198.97485 26.45833"
   version="1.1"
   id="svg4801">
  <defs
     id="defs4795" />
  <metadata
     id="metadata4798">
    <rdf:RDF>
      <cc:Work
         rdf:about="">
        <dc:format>image/svg+xml</dc:format>
        <dc:type
           rdf:resource="http://purl.org/dc/dcmitype/StillImage" />
        <dc:title></dc:title>
      </cc:Work>
    </rdf:RDF>
  </metadata>
  <g
     id="layer1"
     transform="translate(343.01556,-283.33626)">
    <path
       id="path887-5-1-3-3"
       style="font-style:normal;font-variant:normal;font-weight:bold;font-stretch:semi-condensed;font-size:40px;line-height:1.25;font-family:'Trade Gothic LT Std';-inkscape-font-specification:'Trade Gothic LT Std Bold Semi-Condensed';letter-spacing:0px;word-spacing:0px;fill:#000000;fill-opacity:1;stroke:none;stroke-width:0.89145339"
       d="m -289.04362,283.69274 h -5.24174 l 7.02466,15.33297 v 10.4122 h 4.92077 v -10.4122 l 7.02466,-15.33297 h -5.24174 l -4.172,10.37654 z" />
    <path
       id="path889-9-5-5-6"
       style="font-style:normal;font-variant:normal;font-weight:bold;font-stretch:semi-condensed;font-size:40px;line-height:1.25;font-family:'Trade Gothic LT Std';-inkscape-font-specification:'Trade Gothic LT Std Bold Semi-Condensed';letter-spacing:0px;word-spacing:0px;fill:#000000;fill-opacity:1;stroke:none;stroke-width:0.89145339"
       d="m -276.05159,302.44891 c 0,5.13478 2.63868,7.34558 7.13158,7.34558 4.49296,0 7.13164,-2.2108 7.13164,-7.34558 v -5.42004 c 0,-5.13473 -2.63868,-7.34553 -7.13164,-7.34553 -4.4929,0 -7.13158,2.2108 -7.13158,7.34553 z m 4.4929,-6.56108 c 0,-1.49763 1.06972,-2.28209 2.63868,-2.28209 1.56898,0 2.63874,0.78446 2.63874,2.28209 v 7.70216 c 0,1.49764 -1.06976,2.2821 -2.63874,2.2821 -1.56896,0 -2.63868,-0.78446 -2.63868,-2.2821 z" />
    <path
       id="path891-2-5-6-7"
       style="font-style:normal;font-variant:normal;font-weight:bold;font-stretch:semi-condensed;font-size:40px;line-height:1.25;font-family:'Trade Gothic LT Std';-inkscape-font-specification:'Trade Gothic LT Std Bold Semi-Condensed';letter-spacing:0px;word-spacing:0px;fill:#000000;fill-opacity:1;stroke:none;stroke-width:0.89145339"
       d="m -250.28779,290.03992 v 14.65549 c -0.9628,0.85578 -1.99686,1.7472 -2.92398,1.7472 -1.21236,0 -1.6403,-0.85578 -1.6403,-2.13948 v -14.26321 h -4.4929 v 14.76245 c 0,3.60148 1.42634,4.99212 4.172,4.99212 1.85422,0 3.38752,-1.14104 5.0278,-2.56738 v 2.2108 h 4.35027 v -19.39799 z" />
    <path
       id="path893-2-4-2-53"
       style="font-style:normal;font-variant:normal;font-weight:bold;font-stretch:semi-condensed;font-size:40px;line-height:1.25;font-family:'Trade Gothic LT Std';-inkscape-font-specification:'Trade Gothic LT Std Bold Semi-Condensed';letter-spacing:0px;word-spacing:0px;fill:#000000;fill-opacity:1;stroke:none;stroke-width:0.89145339"
       d="m -236.4588,291.32358 c 0,-2.85264 1.24806,-3.6371 3.20924,-3.6371 1.9614,0 3.2094,0.78446 3.2094,3.6371 v 0.71318 h 4.9208 v -0.0712 c 0,-6.34714 -3.35182,-8.6293 -8.1302,-8.6293 -4.77816,0 -8.13004,2.28216 -8.13004,8.6293 v 9.19979 c 0,6.34712 3.35188,8.62924 8.13004,8.62924 4.77838,0 8.1302,-2.28212 8.1302,-8.62924 v -1.06976 h -4.9208 v 1.71158 c 0,2.85268 -1.248,3.63714 -3.2094,3.63714 -1.96118,0 -3.20924,-0.78446 -3.20924,-3.63714 z" />
    <path
       id="path895-8-7-9-5"
       style="font-style:normal;font-variant:normal;font-weight:bold;font-stretch:semi-condensed;font-size:40px;line-height:1.25;font-family:'Trade Gothic LT Std';-inkscape-font-specification:'Trade Gothic LT Std Bold Semi-Condensed';letter-spacing:0px;word-spacing:0px;fill:#000000;fill-opacity:1;stroke:none;stroke-width:0.89145339"
       d="m -217.68992,309.43791 v -14.6555 c 0.9628,-0.85577 1.99686,-1.74723 2.924,-1.74723 1.21234,0 1.64024,0.85582 1.64024,2.13947 v 14.26326 h 4.49296 v -14.76246 c 0,-3.60147 -1.42634,-4.99211 -4.172,-4.99211 -1.85424,0 -3.38754,1.14104 -4.8852,2.56738 v -8.55798 h -4.4929 v 25.74517 z" />
    <path
       id="path897-9-6-1-62"
       style="font-style:normal;font-variant:normal;font-weight:bold;font-stretch:semi-condensed;font-size:40px;line-height:1.25;font-family:'Trade Gothic LT Std';-inkscape-font-specification:'Trade Gothic LT Std Bold Semi-Condensed';letter-spacing:0px;word-spacing:0px;fill:#000000;fill-opacity:1;stroke:none;stroke-width:0.89145339"
       d="m -206.18923,302.44891 c 0,5.13478 2.63872,7.34558 7.13164,7.34558 4.49296,0 7.13164,-2.2108 7.13164,-7.34558 v -5.42004 c 0,-5.13473 -2.63868,-7.34553 -7.13164,-7.34553 -4.49292,0 -7.13164,2.2108 -7.13164,7.34553 z m 4.49294,-6.56108 c 0,-1.49763 1.06974,-2.28209 2.6387,-2.28209 1.56894,0 2.6387,0.78446 2.6387,2.28209 v 7.70216 c 0,1.49764 -1.06976,2.2821 -2.6387,2.2821 -1.56896,0 -2.6387,-0.78446 -2.6387,-2.2821 z" />
    <path
       id="path899-7-5-2-9"
       style="font-style:normal;font-variant:normal;font-weight:bold;font-stretch:semi-condensed;font-size:40px;line-height:1.25;font-family:'Trade Gothic LT Std';-inkscape-font-specification:'Trade Gothic LT Std Bold Semi-Condensed';letter-spacing:0px;word-spacing:0px;fill:#000000;fill-opacity:1;stroke:none;stroke-width:0.89145339"
       d="m -189.34611,302.44891 c 0,5.13478 2.63872,7.34558 7.13164,7.34558 4.49296,0 7.13164,-2.2108 7.13164,-7.34558 v -5.42004 c 0,-5.13473 -2.63868,-7.34553 -7.13164,-7.34553 -4.49292,0 -7.13164,2.2108 -7.13164,7.34553 z m 4.49296,-6.56108 c 0,-1.49763 1.06972,-2.28209 2.63868,-2.28209 1.56896,0 2.63868,0.78446 2.63868,2.28209 v 7.70216 c 0,1.49764 -1.06972,2.2821 -2.63868,2.2821 -1.56896,0 -2.63868,-0.78446 -2.63868,-2.2821 z" />
    <path
       id="path901-3-6-7-1"
       style="font-style:normal;font-variant:normal;font-weight:bold;font-stretch:semi-condensed;font-size:40px;line-height:1.25;font-family:'Trade Gothic LT Std';-inkscape-font-specification:'Trade Gothic LT Std Bold Semi-Condensed';letter-spacing:0px;word-spacing:0px;fill:#000000;fill-opacity:1;stroke:none;stroke-width:0.89145339"
       d="m -159.88,294.53281 c -1.10538,-2.92397 -3.4232,-4.84947 -6.77501,-4.84947 -3.1736,0 -6.13324,1.74722 -6.13324,5.41999 0,6.52546 8.77191,5.63402 8.77191,9.34248 0,1.06972 -0.82014,1.71154 -2.17514,1.71154 -1.78289,0 -2.88827,-1.17668 -3.28051,-2.99526 l -4.0294,1.10538 c 2.17514,4.84952 4.59988,5.52702 7.30991,5.52702 3.7441,0 6.45414,-2.03252 6.45414,-5.88358 0,-5.77662 -8.77189,-5.84794 -8.77189,-8.84324 0,-0.99839 0.78444,-1.74725 1.81856,-1.74725 1.35501,0 2.49605,0.85582 3.10221,2.63873 z" />
    <path
       style="color:#000000;font-style:normal;font-variant:normal;font-weight:normal;font-stretch:normal;font-size:medium;line-height:normal;font-family:sans-serif;font-variant-ligatures:normal;font-variant-position:normal;font-variant-caps:normal;font-variant-numeric:normal;font-variant-alternates:normal;font-feature-settings:normal;text-indent:0;text-align:start;text-decoration:none;text-decoration-line:none;text-decoration-style:solid;text-decoration-color:#000000;letter-spacing:normal;word-spacing:normal;text-transform:none;writing-mode:lr-tb;direction:ltr;text-orientation:mixed;dominant-baseline:auto;baseline-shift:baseline;text-anchor:start;white-space:normal;shape-padding:0;clip-rule:nonzero;display:inline;overflow:visible;visibility:visible;opacity:1;isolation:auto;mix-blend-mode:normal;color-interpolation:sRGB;color-interpolation-filters:linearRGB;solid-color:#000000;solid-opacity:1;vector-effect:none;fill:#e33180;fill-opacity:1;fill-rule:nonzero;stroke:none;stroke-width:1.71088648;stroke-linecap:butt;stroke-linejoin:round;stroke-miterlimit:4;stroke-dasharray:none;stroke-dashoffset:0;stroke-opacity:1;color-rendering:auto;image-rendering:auto;shape-rendering:auto;text-rendering:auto;enable-background:accumulate"
       d="m -319.14182,290.93728 c -0.47054,0.001 -0.85162,0.38248 -0.853,0.85302 l -0.02,9.72451 c -0.001,0.66128 0.71562,1.07426 1.28676,0.74094 l 8.64342,-5.04156 c 0.57488,-0.3361 0.56232,-1.17116 -0.0224,-1.4898 l -8.62366,-4.68427 c -0.1264,-0.0682 -0.26778,-0.1036 -0.41134,-0.1028 z"
       id="path876-3-5-6-6" />
    <path
       id="path882-3-3-6-5-6"
       d="m -316.65006,283.85352 c -2.51986,0.24608 -4.35126,1.60234 -5.80622,3.18658 -2.90993,3.16846 -4.71903,7.14926 -9.43579,8.33887 -1.127,0.28384 -1.14432,1.87902 -0.0238,2.18724 4.72196,1.29696 6.51892,5.27576 9.44501,8.4193 1.46304,1.57176 3.31046,2.90504 5.8471,3.14306 2.53664,0.23802 4.8804,-0.38008 8.54276,-2.2798 l -0.004,-2.43568 c -3.92488,2.08848 -6.44144,2.64066 -8.32798,2.46366 -1.88654,-0.177 -3.1306,-1.06642 -4.40214,-2.43246 -2.0975,-2.25334 -4.02584,-5.85972 -7.82999,-7.94336 3.81763,-2.02449 5.76211,-5.65131 7.85503,-7.93017 1.26984,-1.38266 2.50426,-2.28432 4.35862,-2.4654 1.85438,-0.1812 4.43182,0.37986 8.30114,2.49782 -0.2365,-1.13238 0.0236,-1.74818 0.30406,-2.3566 -4.08764,-2.23744 -6.30416,-2.63912 -8.82404,-2.39306 z"
       style="color:#000000;font-style:normal;font-variant:normal;font-weight:normal;font-stretch:normal;font-size:medium;line-height:normal;font-family:sans-serif;font-variant-ligatures:normal;font-variant-position:normal;font-variant-caps:normal;font-variant-numeric:normal;font-variant-alternates:normal;font-feature-settings:normal;text-indent:0;text-align:start;text-decoration:none;text-decoration-line:none;text-decoration-style:solid;text-decoration-color:#000000;letter-spacing:normal;word-spacing:normal;text-transform:none;writing-mode:lr-tb;direction:ltr;text-orientation:mixed;dominant-baseline:auto;baseline-shift:baseline;text-anchor:start;white-space:normal;shape-padding:0;clip-rule:nonzero;display:inline;overflow:visible;visibility:visible;opacity:1;isolation:auto;mix-blend-mode:normal;color-interpolation:sRGB;color-interpolation-filters:linearRGB;solid-color:#000000;solid-opacity:1;vector-effect:none;fill:#000000;fill-opacity:0.94117647;fill-rule:nonzero;stroke:none;stroke-width:2.26174426;stroke-linecap:butt;stroke-linejoin:round;stroke-miterlimit:4;stroke-dasharray:none;stroke-dashoffset:0;stroke-opacity:1;color-rendering:auto;image-rendering:auto;shape-rendering:auto;text-rendering:auto;enable-background:accumulate" />
    <path
       id="path876-3-5-6-2-26"
       d="m -307.26832,301.40539 c -0.45452,0.008 -0.81884,0.37862 -0.81872,0.83322 l 0.004,5.9394 c 6.6e-4,0.64508 0.70272,1.04466 1.25774,0.7159 l 5.31052,-3.14704 c 0.56082,-0.33226 0.54004,-1.15082 -0.037,-1.4542 l -5.31448,-2.79236 c -0.124,-0.0648 -0.26222,-0.0976 -0.4021,-0.095 z"
       style="color:#000000;font-style:normal;font-variant:normal;font-weight:normal;font-stretch:normal;font-size:medium;line-height:normal;font-family:sans-serif;font-variant-ligatures:normal;font-variant-position:normal;font-variant-caps:normal;font-variant-numeric:normal;font-variant-alternates:normal;font-feature-settings:normal;text-indent:0;text-align:start;text-decoration:none;text-decoration-line:none;text-decoration-style:solid;text-decoration-color:#000000;letter-spacing:normal;word-spacing:normal;text-transform:none;writing-mode:lr-tb;direction:ltr;text-orientation:mixed;dominant-baseline:auto;baseline-shift:baseline;text-anchor:start;white-space:normal;shape-padding:0;clip-rule:nonzero;display:inline;overflow:visible;visibility:visible;opacity:1;isolation:auto;mix-blend-mode:normal;color-interpolation:sRGB;color-interpolation-filters:linearRGB;solid-color:#000000;solid-opacity:1;vector-effect:none;fill:#070707;fill-opacity:1;fill-rule:nonzero;stroke:none;stroke-width:1.66611004;stroke-linecap:butt;stroke-linejoin:round;stroke-miterlimit:4;stroke-dasharray:none;stroke-dashoffset:0;stroke-opacity:1;color-rendering:auto;image-rendering:auto;shape-rendering:auto;text-rendering:auto;enable-background:accumulate" />
    <path
       id="path1095-1"
       d="m -304.85036,284.43758 c -1.8619,0 -3.37512,1.51452 -3.37512,3.37642 0,1.86188 1.51322,3.3751 3.37512,3.3751 1.86188,0 3.37642,-1.51322 3.37642,-3.3751 0,-1.8619 -1.51454,-3.37642 -3.37642,-3.37642 z"
       style="color:#000000;font-style:normal;font-variant:normal;font-weight:normal;font-stretch:normal;font-size:medium;line-height:normal;font-family:sans-serif;font-variant-ligatures:normal;font-variant-position:normal;font-variant-caps:normal;font-variant-numeric:normal;font-variant-alternates:normal;font-feature-settings:normal;text-indent:0;text-align:start;text-decoration:none;text-decoration-line:none;text-decoration-style:solid;text-decoration-color:#000000;letter-spacing:normal;word-spacing:normal;text-transform:none;writing-mode:lr-tb;direction:ltr;text-orientation:mixed;dominant-baseline:auto;baseline-shift:baseline;text-anchor:start;white-space:normal;shape-padding:0;clip-rule:nonzero;display:inline;overflow:visible;visibility:visible;opacity:1;isolation:auto;mix-blend-mode:normal;color-interpolation:sRGB;color-interpolation-filters:linearRGB;solid-color:#000000;solid-opacity:1;vector-effect:none;fill:#000000;fill-opacity:1;fill-rule:nonzero;stroke:none;stroke-width:0.43682498;stroke-linecap:round;stroke-linejoin:round;stroke-miterlimit:4;stroke-dasharray:none;stroke-dashoffset:0;stroke-opacity:1;color-rendering:auto;image-rendering:auto;shape-rendering:auto;text-rendering:auto;enable-background:accumulate" />
    <path
       d="m -289.04362,283.69274 h -5.24174 l 7.02466,15.33297 v 10.4122 h 4.92077 v -10.4122 l 7.02466,-15.33297 h -5.24174 l -4.172,10.37654 z"
       style="font-style:normal;font-variant:normal;font-weight:bold;font-stretch:semi-condensed;font-size:40px;line-height:1.25;font-family:'Trade Gothic LT Std';-inkscape-font-specification:'Trade Gothic LT Std Bold Semi-Condensed';letter-spacing:0px;word-spacing:0px;fill:#1a030e;fill-opacity:1;stroke:none;stroke-width:0.89145339"
       id="path4835" />
    <path
       d="m -276.05159,302.44891 c 0,5.13478 2.63868,7.34558 7.13158,7.34558 4.49296,0 7.13164,-2.2108 7.13164,-7.34558 v -5.42004 c 0,-5.13473 -2.63868,-7.34553 -7.13164,-7.34553 -4.4929,0 -7.13158,2.2108 -7.13158,7.34553 z m 4.4929,-6.56108 c 0,-1.49763 1.06972,-2.28209 2.63868,-2.28209 1.56898,0 2.63874,0.78446 2.63874,2.28209 v 7.70216 c 0,1.49764 -1.06976,2.2821 -2.63874,2.2821 -1.56896,0 -2.63868,-0.78446 -2.63868,-2.2821 z"
       style="font-style:normal;font-variant:normal;font-weight:bold;font-stretch:semi-condensed;font-size:40px;line-height:1.25;font-family:'Trade Gothic LT Std';-inkscape-font-specification:'Trade Gothic LT Std Bold Semi-Condensed';letter-spacing:0px;word-spacing:0px;fill:#1a030e;fill-opacity:1;stroke:none;stroke-width:0.89145339"
       id="path4837" />
    <path
       d="m -236.4588,291.32358 c 0,-2.85264 1.24806,-3.6371 3.20924,-3.6371 1.9614,0 3.2094,0.78446 3.2094,3.6371 v 0.71318 h 4.9208 v -0.0712 c 0,-6.34714 -3.35182,-8.6293 -8.1302,-8.6293 -4.77816,0 -8.13004,2.28216 -8.13004,8.6293 v 9.19979 c 0,6.34712 3.35188,8.62924 8.13004,8.62924 4.77838,0 8.1302,-2.28212 8.1302,-8.62924 v -1.06976 h -4.9208 v 1.71158 c 0,2.85268 -1.248,3.63714 -3.2094,3.63714 -1.96118,0 -3.20924,-0.78446 -3.20924,-3.63714 z"
       style="font-style:normal;font-variant:normal;font-weight:bold;font-stretch:semi-condensed;font-size:40px;line-height:1.25;font-family:'Trade Gothic LT Std';-inkscape-font-specification:'Trade Gothic LT Std Bold Semi-Condensed';letter-spacing:0px;word-spacing:0px;fill:#1a030e;fill-opacity:1;stroke:none;stroke-width:0.89145339"
       id="path4841" />
    <path
       d="m -217.68992,309.43791 v -14.6555 c 0.9628,-0.85577 1.99686,-1.74723 2.924,-1.74723 1.21234,0 1.64024,0.85582 1.64024,2.13947 v 14.26326 h 4.49296 v -14.76246 c 0,-3.60147 -1.42634,-4.99211 -4.172,-4.99211 -1.85424,0 -3.38754,1.14104 -4.8852,2.56738 v -8.55798 h -4.4929 v 25.74517 z"
       style="font-style:normal;font-variant:normal;font-weight:bold;font-stretch:semi-condensed;font-size:40px;line-height:1.25;font-family:'Trade Gothic LT Std';-inkscape-font-specification:'Trade Gothic LT Std Bold Semi-Condensed';letter-spacing:0px;word-spacing:0px;fill:#1a030e;fill-opacity:1;stroke:none;stroke-width:0.89145339"
       id="path4843" />
    <path
       d="m -206.18923,302.44891 c 0,5.13478 2.63872,7.34558 7.13164,7.34558 4.49296,0 7.13164,-2.2108 7.13164,-7.34558 v -5.42004 c 0,-5.13473 -2.63868,-7.34553 -7.13164,-7.34553 -4.49292,0 -7.13164,2.2108 -7.13164,7.34553 z m 4.49294,-6.56108 c 0,-1.49763 1.06974,-2.28209 2.6387,-2.28209 1.56894,0 2.6387,0.78446 2.6387,2.28209 v 7.70216 c 0,1.49764 -1.06976,2.2821 -2.6387,2.2821 -1.56896,0 -2.6387,-0.78446 -2.6387,-2.2821 z"
       style="font-style:normal;font-variant:normal;font-weight:bold;font-stretch:semi-condensed;font-size:40px;line-height:1.25;font-family:'Trade Gothic LT Std';-inkscape-font-specification:'Trade Gothic LT Std Bold Semi-Condensed';letter-spacing:0px;word-spacing:0px;fill:#1a030e;fill-opacity:1;stroke:none;stroke-width:0.89145339"
       id="path4845" />
    <path
       d="m -189.34611,302.44891 c 0,5.13478 2.63872,7.34558 7.13164,7.34558 4.49296,0 7.13164,-2.2108 7.13164,-7.34558 v -5.42004 c 0,-5.13473 -2.63868,-7.34553 -7.13164,-7.34553 -4.49292,0 -7.13164,2.2108 -7.13164,7.34553 z m 4.49296,-6.56108 c 0,-1.49763 1.06972,-2.28209 2.63868,-2.28209 1.56896,0 2.63868,0.78446 2.63868,2.28209 v 7.70216 c 0,1.49764 -1.06972,2.2821 -2.63868,2.2821 -1.56896,0 -2.63868,-0.78446 -2.63868,-2.2821 z"
       style="font-style:normal;font-variant:normal;font-weight:bold;font-stretch:semi-condensed;font-size:40px;line-height:1.25;font-family:'Trade Gothic LT Std';-inkscape-font-specification:'Trade Gothic LT Std Bold Semi-Condensed';letter-spacing:0px;word-spacing:0px;fill:#1a030e;fill-opacity:1;stroke:none;stroke-width:0.89145339"
       id="path4847" />
    <path
       d="m -159.88,294.53281 c -1.10538,-2.92397 -3.4232,-4.84947 -6.77501,-4.84947 -3.1736,0 -6.13324,1.74722 -6.13324,5.41999 0,6.52546 8.77191,5.63402 8.77191,9.34248 0,1.06972 -0.82014,1.71154 -2.17514,1.71154 -1.78289,0 -2.88827,-1.17668 -3.28051,-2.99526 l -4.0294,1.10538 c 2.17514,4.84952 4.59988,5.52702 7.30991,5.52702 3.7441,0 6.45414,-2.03252 6.45414,-5.88358 0,-5.77662 -8.77189,-5.84794 -8.77189,-8.84324 0,-0.99839 0.78444,-1.74725 1.81856,-1.74725 1.35501,0 2.49605,0.85582 3.10221,2.63873 z"
       style="font-style:normal;font-variant:normal;font-weight:bold;font-stretch:semi-condensed;font-size:40px;line-height:1.25;font-family:'Trade Gothic LT Std';-inkscape-font-specification:'Trade Gothic LT Std Bold Semi-Condensed';letter-spacing:0px;word-spacing:0px;fill:#1a030e;fill-opacity:1;stroke:none;stroke-width:0.89145339"
       id="path4849" />
    <path
       d="m -144.56988,300.80863 v -4.52856 c 0,-3.95805 -2.9596,-6.59673 -7.1316,-6.59673 -4.279,0 -7.13164,2.63868 -7.13164,6.88199 v 6.34716 c 0,4.24332 2.85264,6.882 7.13164,6.882 4.52856,0 6.9177,-2.35344 7.1316,-6.34714 h -4.49292 c 0,1.49766 -0.7488,2.71 -2.63868,2.71 -1.49766,0 -2.63874,-0.85576 -2.63874,-2.7813 v -2.56742 z m -9.77034,-3.63714 v -1.06972 c 0,-1.71157 0.82018,-2.78135 2.63874,-2.78135 1.81856,0 2.63868,1.06978 2.63868,2.78135 v 1.06972 z"
       style="font-style:normal;font-variant:normal;font-weight:bold;font-stretch:semi-condensed;font-size:40px;line-height:1.25;font-family:'Trade Gothic LT Std';-inkscape-font-specification:'Trade Gothic LT Std Bold Semi-Condensed';letter-spacing:0px;word-spacing:0px;fill:#1a030e;fill-opacity:1;stroke:none;stroke-width:0.89145339"
       id="path4851" />
    <path
       id="path4853"
       d="m -319.14182,290.93728 c -0.47054,0.001 -0.85162,0.38248 -0.853,0.85302 l -0.02,9.72451 c -0.001,0.66128 0.71562,1.07426 1.28676,0.74094 l 8.64342,-5.04156 c 0.57488,-0.3361 0.56232,-1.17116 -0.0224,-1.4898 l -8.62366,-4.68427 c -0.1264,-0.0682 -0.26778,-0.1036 -0.41134,-0.1028 z"
       style="color:#000000;font-style:normal;font-variant:normal;font-weight:normal;font-stretch:normal;font-size:medium;line-height:normal;font-family:sans-serif;font-variant-ligatures:normal;font-variant-position:normal;font-variant-caps:normal;font-variant-numeric:normal;font-variant-alternates:normal;font-feature-settings:normal;text-indent:0;text-align:start;text-decoration:none;text-decoration-line:none;text-decoration-style:solid;text-decoration-color:#000000;letter-spacing:normal;word-spacing:normal;text-transform:none;writing-mode:lr-tb;direction:ltr;text-orientation:mixed;dominant-baseline:auto;baseline-shift:baseline;text-anchor:start;white-space:normal;shape-padding:0;clip-rule:nonzero;display:inline;overflow:visible;visibility:visible;opacity:1;isolation:auto;mix-blend-mode:normal;color-interpolation:sRGB;color-interpolation-filters:linearRGB;solid-color:#000000;solid-opacity:1;vector-effect:none;fill:#1a030e;fill-opacity:1;fill-rule:nonzero;stroke:none;stroke-width:1.71088648;stroke-linecap:butt;stroke-linejoin:round;stroke-miterlimit:4;stroke-dasharray:none;stroke-dashoffset:0;stroke-opacity:1;color-rendering:auto;image-rendering:auto;shape-rendering:auto;text-rendering:auto;enable-background:accumulate" />
    <path
       style="color:#000000;font-style:normal;font-variant:normal;font-weight:normal;font-stretch:normal;font-size:medium;line-height:normal;font-family:sans-serif;font-variant-ligatures:normal;font-variant-position:normal;font-variant-caps:normal;font-variant-numeric:normal;font-variant-alternates:normal;font-feature-settings:normal;text-indent:0;text-align:start;text-decoration:none;text-decoration-line:none;text-decoration-style:solid;text-decoration-color:#000000;letter-spacing:normal;word-spacing:normal;text-transform:none;writing-mode:lr-tb;direction:ltr;text-orientation:mixed;dominant-baseline:auto;baseline-shift:baseline;text-anchor:start;white-space:normal;shape-padding:0;clip-rule:nonzero;display:inline;overflow:visible;visibility:visible;opacity:1;isolation:auto;mix-blend-mode:normal;color-interpolation:sRGB;color-interpolation-filters:linearRGB;solid-color:#000000;solid-opacity:1;vector-effect:none;fill:#1a030e;fill-opacity:1;fill-rule:nonzero;stroke:none;stroke-width:2.26174426;stroke-linecap:butt;stroke-linejoin:round;stroke-miterlimit:4;stroke-dasharray:none;stroke-dashoffset:0;stroke-opacity:1;color-rendering:auto;image-rendering:auto;shape-rendering:auto;text-rendering:auto;enable-background:accumulate"
       d="m -316.65006,283.85352 c -2.51986,0.24608 -4.35126,1.60236 -5.80622,3.18658 -2.87571,3.1312 -4.67631,7.05572 -9.27055,8.29573 -0.0546,0.014 -11.26493,0.0432 -11.26493,0.0432 l -0.0238,2.18724 c 0,0 11.20151,0.0284 11.25191,0.043 4.60876,1.33992 6.39834,5.26674 9.29279,8.37626 1.46306,1.57176 3.31046,2.90506 5.8471,3.14306 2.53664,0.23802 4.8804,-0.38008 8.54276,-2.2798 l -0.004,-2.43568 c -3.92488,2.0885 -6.44144,2.64066 -8.32798,2.46366 -1.88654,-0.177 -3.1306,-1.0664 -4.40214,-2.43244 -2.0975,-2.25336 -4.02584,-5.85972 -7.82999,-7.94338 3.81763,-2.02447 5.76211,-5.65131 7.85503,-7.93015 1.26984,-1.38268 2.50426,-2.28434 4.35862,-2.46542 1.85438,-0.181 4.43182,0.37988 8.30114,2.49782 -0.2365,-1.13238 0.0236,-1.74818 0.30406,-2.3566 -4.08764,-2.23744 -6.30416,-2.63912 -8.82404,-2.39306 z"
       id="path4855" />
    <path
       style="color:#000000;font-style:normal;font-variant:normal;font-weight:normal;font-stretch:normal;font-size:medium;line-height:normal;font-family:sans-serif;font-variant-ligatures:normal;font-variant-position:normal;font-variant-caps:normal;font-variant-numeric:normal;font-variant-alternates:normal;font-feature-settings:normal;text-indent:0;text-align:start;text-decoration:none;text-decoration-line:none;text-decoration-style:solid;text-decoration-color:#000000;letter-spacing:normal;word-spacing:normal;text-transform:none;writing-mode:lr-tb;direction:ltr;text-orientation:mixed;dominant-baseline:auto;baseline-shift:baseline;text-anchor:start;white-space:normal;shape-padding:0;clip-rule:nonzero;display:inline;overflow:visible;visibility:visible;opacity:1;isolation:auto;mix-blend-mode:normal;color-interpolation:sRGB;color-interpolation-filters:linearRGB;solid-color:#000000;solid-opacity:1;vector-effect:none;fill:#1a030e;fill-opacity:1;fill-rule:nonzero;stroke:none;stroke-width:1.66611004;stroke-linecap:butt;stroke-linejoin:round;stroke-miterlimit:4;stroke-dasharray:none;stroke-dashoffset:0;stroke-opacity:1;color-rendering:auto;image-rendering:auto;shape-rendering:auto;text-rendering:auto;enable-background:accumulate"
       d="m -307.26832,301.40539 c -0.45452,0.008 -0.81884,0.37862 -0.81872,0.83322 l 0.004,5.9394 c 6.6e-4,0.64508 0.70272,1.04466 1.25774,0.7159 l 5.31052,-3.14704 c 0.56082,-0.33226 0.54004,-1.15082 -0.037,-1.4542 l -5.31448,-2.79236 c -0.124,-0.0648 -0.26222,-0.0976 -0.4021,-0.095 z"
       id="path4857" />
    <path
       style="color:#000000;font-style:normal;font-variant:normal;font-weight:normal;font-stretch:normal;font-size:medium;line-height:normal;font-family:sans-serif;font-variant-ligatures:normal;font-variant-position:normal;font-variant-caps:normal;font-variant-numeric:normal;font-variant-alternates:normal;font-feature-settings:normal;text-indent:0;text-align:start;text-decoration:none;text-decoration-line:none;text-decoration-style:solid;text-decoration-color:#000000;letter-spacing:normal;word-spacing:normal;text-transform:none;writing-mode:lr-tb;direction:ltr;text-orientation:mixed;dominant-baseline:auto;baseline-shift:baseline;text-anchor:start;white-space:normal;shape-padding:0;clip-rule:nonzero;display:inline;overflow:visible;visibility:visible;opacity:1;isolation:auto;mix-blend-mode:normal;color-interpolation:sRGB;color-interpolation-filters:linearRGB;solid-color:#000000;solid-opacity:1;vector-effect:none;fill:#1a030e;fill-opacity:1;fill-rule:nonzero;stroke:none;stroke-width:0.43682498;stroke-linecap:round;stroke-linejoin:round;stroke-miterlimit:4;stroke-dasharray:none;stroke-dashoffset:0;stroke-opacity:1;color-rendering:auto;image-rendering:auto;shape-rendering:auto;text-rendering:auto;enable-background:accumulate"
       d="m -304.85036,284.43758 c -1.8619,0 -3.37512,1.51452 -3.37512,3.37642 0,1.86188 1.51322,3.3751 3.37512,3.3751 1.86188,0 3.37642,-1.51322 3.37642,-3.3751 0,-1.8619 -1.51454,-3.37642 -3.37642,-3.37642 z"
       id="path4859" />
  </g>
</svg>
