<?xml version="1.0" encoding="UTF-8" standalone="no"?>
<svg
   xmlns:dc="http://purl.org/dc/elements/1.1/"
   xmlns:cc="http://creativecommons.org/ns#"
   xmlns:rdf="http://www.w3.org/1999/02/22-rdf-syntax-ns#"
   xmlns:svg="http://www.w3.org/2000/svg"
   xmlns="http://www.w3.org/2000/svg"
   xmlns:sodipodi="http://sodipodi.sourceforge.net/DTD/sodipodi-0.dtd"
   xmlns:inkscape="http://www.inkscape.org/namespaces/inkscape"
   cursor="crosshair"
   id="Layer_1"
   sodipodi:docname="trexlogo.svg"
   inkscape:version="0.92.5 (2060ec1f9f, 2020-04-08)"
   version="1.1"
   data-name="Layer 1"
   viewBox="0 -26 300.75791 300"
   width="300.7579"
   height="300">
  <metadata
     id="metadata4732">
    <rdf:RDF>
      <cc:Work
         rdf:about="">
        <dc:format>image/svg+xml</dc:format>
        <dc:type
           rdf:resource="http://purl.org/dc/dcmitype/StillImage" />
        <dc:title>TrackingExposed</dc:title>
      </cc:Work>
    </rdf:RDF>
  </metadata>
  <sodipodi:namedview
     pagecolor="#ffffff"
     bordercolor="#666666"
     borderopacity="1"
     objecttolerance="10"
     gridtolerance="10"
     guidetolerance="10"
     inkscape:pageopacity="0"
     inkscape:pageshadow="2"
     inkscape:window-width="1920"
     inkscape:window-height="1016"
     id="namedview4730"
     showgrid="false"
     inkscape:zoom="0.58898489"
     inkscape:cx="-94.554068"
     inkscape:cy="358.06823"
     inkscape:window-x="0"
     inkscape:window-y="27"
     inkscape:window-maximized="1"
     inkscape:current-layer="layer2-6"
     units="cm"
     fit-margin-top="0"
     fit-margin-left="0"
     fit-margin-right="0"
     fit-margin-bottom="0" />
  <defs
     id="defs4667">
    <style
       id="style4665">.cls-1{fill:#3b5998;}.cls-2{fill:#1b1b1b;}</style>
    <style
       id="style4665-3">.cls-1{fill:#3b5998;}.cls-2{fill:#1b1b1b;}</style>
  </defs>
  <title
     id="title4669">TrackingExposed</title>
  <linearGradient
     id="SVGID_1_"
     gradientUnits="userSpaceOnUse"
     x1="-48.883202"
     y1="652.6286"
     x2="-47.8503"
     y2="651.79181"
     gradientTransform="matrix(400.9806,0,0,-494.9333,19667.31,323061.03)">
    <stop
       style="stop-color:#9bc9c5;"
       offset="0"
       id="stop7" />
    <stop
       offset="0.1717"
       style="stop-color:#9bc9c5;"
       id="stop9" />
    <stop
       offset="0.2"
       style="stop-color:#9bc9c5;"
       id="stop11" />
    <stop
       offset="0.2001"
       style="stop-color:#DAE4F4"
       id="stop13" />
    <stop
       offset="0.2007"
       style="stop-color:#EBEBF4"
       id="stop15" />
    <stop
       offset="0.2014"
       style="stop-color:#F6F1F4"
       id="stop17" />
    <stop
       offset="0.2023"
       style="stop-color:#FDF4F4"
       id="stop19" />
    <stop
       offset="0.205"
       style="stop-color:#FFF5F4"
       id="stop21" />
    <stop
       offset="0.2522"
       style="stop-color:#FFF5F4"
       id="stop23" />
    <stop
       offset="0.26"
       style="stop-color:#FFF5F4"
       id="stop25" />
    <stop
       offset="0.26"
       style="stop-color:#9bc9c5;"
       id="stop27" />
    <stop
       offset="0.3974"
       style="stop-color:#9bc9c5;"
       id="stop29" />
    <stop
       offset="0.42"
       style="stop-color:#9bc9c5;"
       id="stop31" />
    <stop
       offset="0.4201"
       style="stop-color:#DAE4F4"
       id="stop33" />
    <stop
       offset="0.4207"
       style="stop-color:#EBEBF4"
       id="stop35" />
    <stop
       offset="0.4214"
       style="stop-color:#F6F1F4"
       id="stop37" />
    <stop
       offset="0.4223"
       style="stop-color:#FDF4F4"
       id="stop39" />
    <stop
       offset="0.425"
       style="stop-color:#FFF5F4"
       id="stop41" />
    <stop
       offset="0.4894"
       style="stop-color:#FFF5F4"
       id="stop43" />
    <stop
       offset="0.5"
       style="stop-color:#FFF5F4"
       id="stop45" />
    <stop
       offset="0.5"
       style="stop-color:#F9F2F4"
       id="stop47" />
    <stop
       offset="0.5001"
       style="stop-color:#E8EBF4"
       id="stop49" />
    <stop
       offset="0.5003"
       style="stop-color:#DDE5F4"
       id="stop51" />
    <stop
       offset="0.5005"
       style="stop-color:#D6E2F4"
       id="stop53" />
    <stop
       offset="0.501"
       style="stop-color:#9bc9c5;"
       id="stop55" />
    <stop
       offset="0.7062"
       style="stop-color:#9bc9c5;"
       id="stop57" />
    <stop
       offset="0.74"
       style="stop-color:#9bc9c5;"
       id="stop59" />
    <stop
       offset="0.741"
       style="stop-color:#FFF5F4"
       id="stop61" />
    <stop
       offset="0.8346"
       style="stop-color:#FFF5F4"
       id="stop63" />
    <stop
       offset="0.85"
       style="stop-color:#FFF5F4"
       id="stop65" />
    <stop
       offset="0.851"
       style="stop-color:#9bc9c5;"
       id="stop67" />
  </linearGradient>
  <g
     style="display:inline"
     inkscape:label="default"
     id="g19161"
     inkscape:groupmode="layer"
     transform="translate(-116.453,19.057377)">
    <g
       style="display:inline"
       inkscape:label="default-black"
       id="layer2-6"
       transform="translate(114.11969,-46.432348)">
      <path
         style="fill:#ffffff"
         id="path19983-7"
         d="M 303.09122,151.37497 A 150.38,150.38 0 0 0 163.27122,1.3749713 V 22.534971 c 66.36,5.39 118.71,61.11 118.71,128.839999 0,67.73 -52.35,123.45001 -118.71,128.84001 v 21.16 a 150.38,150.38 0 0 0 139.82,-150.00001 z"
         class="cls-1"
         inkscape:connector-curvature="0" />
      <path
         style="fill:#ffffff"
         id="path19985-9"
         d="m 23.451328,151.37497 c 0,-67.729999 52.349992,-123.449999 118.709892,-128.839999 V 1.3749713 a 150.37,150.37 0 0 0 0,300.0000087 v -21.16 C 75.80132,274.82498 23.451328,219.10497 23.451328,151.37497 Z"
         class="cls-1"
         inkscape:connector-curvature="0" />
      <path
         style="fill:#ffffff"
         id="path19987-2"
         d="m 101.27132,62.274971 a 102.9,102.9 0 0 0 -42.47,131.099999 l 18.42,-10.64 a 81.76,81.76 0 0 1 140.4299,-81.08 l 18.43,-10.629999 a 102.9,102.9 0 0 0 -134.8099,-28.75 z"
         class="cls-1"
         inkscape:connector-curvature="0" />
      <path
         style="fill:#ffffff"
         id="path19989-0"
         d="m 193.61122,222.20497 a 81.91,81.91 0 0 1 -105.8399,-21.15 l -18.43,10.63 a 102.9,102.9 0 0 0 177.2899,-102.31 l -18.42,10.6 a 81.9,81.9 0 0 1 -34.6,102.23 z"
         class="cls-1"
         inkscape:connector-curvature="0" />
      <path
         style="fill:#ffffff"
         id="path19991-2"
         d="m 180.41122,103.37497 a 55.41,55.41 0 0 0 -69.52,11.65 l 18.84,10.88 a 34.29,34.29 0 0 1 56.52,32.63 l 18.84,10.87 a 55.41,55.41 0 0 0 -24.68,-66.03 z"
         class="cls-1"
         inkscape:connector-curvature="0" />
      <path
         style="fill:#ffffff"
         id="path19993-3"
         d="m 135.57122,181.07497 a 34.35,34.35 0 0 1 -16.39,-36.88 l -18.8399,-10.82 a 55.4,55.4 0 0 0 94.1999,54.38 l -18.85,-10.88 a 34.33,34.33 0 0 1 -40.12,4.2 z"
         class="cls-1"
         inkscape:connector-curvature="0" />
    </g>
  </g>
  <g
     inkscape:groupmode="layer"
     id="layer2"
     inkscape:label="default-black"
     style="display:none"
     sodipodi:insensitive="true"
     transform="translate(-116.453,19.057377)">
    <path
       d="m 398.76122,59.554971 v 79.379999 h -19.32 V 59.554971 h -27.3 v -18.62 h 73.92 v 18.62 z"
       id="path19953"
       style="fill:#000000"
       inkscape:connector-curvature="0"
       class="cls-1" />
    <path
       d="m 435.52122,138.93497 h -18.48 V 66.694971 h 18.48 v 7.84 c 2.1,-4.9 8.26,-9.1 16.8,-9.1 h 5.6 v 18.06 h -8.68 c -7,0 -13.72,4.34 -13.72,13.999999 z"
       id="path19955"
       style="fill:#000000"
       inkscape:connector-curvature="0"
       class="cls-1" />
    <path
       inkscape:connector-curvature="0"
       class="cls-1"
       d="m 506.20122,91.894971 c -1.26,-6.58 -5.74,-10.5 -13.44,-10.5 -6.58,0 -10.92,3.08 -12.74,8 h -18.62 c 2.94,-15.12 13.44,-24.64 31.36,-24.64 20.72,0 32.2,13.16 32.2,33.179999 v 41 h -18.48 v -8.26 c -3.36,5.46 -9,9.66 -20.16,9.66 -16.8,0 -26.32,-8 -26.32,-21.42 0,-10.64 3.64,-16.66 13.72,-21.56 7,-3.219999 21.56,-4.619999 32.48,-5.319999 z m -27.72,24.919999 c 0,3.5 2.66,7.28 10.92,7.28 9.52,0 17.08,-5.32 17.08,-14.42 v -2.38 c -10.64,0.7 -20.58,1.54 -24.08,3.36 -3.22,1.54 -3.92,2.94 -3.92,6.16 z"
       id="path19957"
       style="fill:#000000" />
    <path
       inkscape:connector-curvature="0"
       class="cls-1"
       d="m 595.93122,112.61497 c -2.1,17.22 -12.88,27.72 -31.92,27.72 -20.72,0 -32.2,-13.16 -32.2,-33.18 v -9.24 c 0,-19.999999 11.48,-33.179999 32.2,-33.179999 19,0 29.82,10.5 31.92,27.72 h -18.48 c -1.11,-6.72 -5.6,-11.08 -13.44,-11.08 -9,0 -13.72,5.6 -13.72,14.14 v 13.999999 c 0,8.54 4.76,14.14 13.72,14.14 7.84,0 12.46,-4.2 13.44,-11.06 z"
       id="path19959"
       style="fill:#000000" />
    <path
       inkscape:connector-curvature="0"
       class="cls-1"
       d="m 620.94122,91.894971 23.1,-25.2 h 22.4 l -26.18,28.42 30,43.819999 h -21.7 l -20.72,-30.24 -6.86,7.56 v 22.68 h -18.52 V 40.934971 h 18.48 z"
       id="path19961"
       style="fill:#000000" />
    <path
       inkscape:connector-curvature="0"
       class="cls-1"
       d="m 692.13122,57.314971 h -18.48 v -16.38 h 18.48 z m 0,81.619999 h -18.48 V 66.694971 h 18.48 z"
       id="path19963"
       style="fill:#000000" />
    <path
       inkscape:connector-curvature="0"
       class="cls-1"
       d="m 766.40122,138.93497 h -18.48 v -42.14 c 0,-9.659999 -6.72,-13.999999 -13.72,-13.999999 -7,0 -13.72,4.34 -13.72,13.999999 v 42.14 h -18.48 V 66.694971 h 18.48 v 6.3 c 3.36,-4.9 10.36,-8.26 16.94,-8.26 14.7,0 29,10.08 29,31.359999 z"
       id="path19965"
       style="fill:#000000" />
    <path
       inkscape:connector-curvature="0"
       class="cls-1"
       d="m 791.84122,139.37497 c 1.54,6.3 5.88,10.08 13.3,10.08 9,0 13.72,-5.6 13.72,-14.14 v -8.4 c -3.36,4.9 -10.36,8.26 -16.94,8.26 -14.7,0 -29,-10.08 -29,-31.36 v -7.7 c 0,-21.279999 14.28,-31.359999 29,-31.359999 6.58,0 13.58,3.36 16.94,8.26 v -6.3 h 18.48 v 66.219999 c 0,20 -11.48,33.18 -32.2,33.18 -18.62,0 -29.54,-10.08 -31.78,-26.74 z m -0.42,-36.26 c 0,9.66 6.72,14 13.72,14 7,0 13.72,-4.34 13.72,-14 v -6.3 c 0,-9.659999 -6.72,-13.999999 -13.72,-13.999999 -7,0 -13.72,4.34 -13.72,13.999999 z"
       id="path19967"
       style="fill:#000000" />
    <path
       inkscape:connector-curvature="0"
       class="cls-1"
       d="m 383.86122,200.46497 h 40.88 v 18.62 h -40.88 v 21.56001 h 40.88 v 18.62 h -59.64 v -98.00001 h 59.64 v 18.62 h -40.88 z"
       id="path19969"
       style="fill:#000000" />
    <path
       inkscape:connector-curvature="0"
       class="cls-1"
       d="m 480.00122,187.02497 h 21 l -23.38,35.14 24.5,37.10001 h -21.14 l -14.28,-22.12 -14.28,22.12 h -21.14 l 24.5,-37.10001 -23.38,-35.14 h 21 l 13.3,20.44 z"
       id="path19971"
       style="fill:#000000" />
    <path
       inkscape:connector-curvature="0"
       class="cls-1"
       d="m 527.85122,285.02498 h -18.51 v -98.00001 h 18.48 v 6.35 c 3.36,-4.9 10.36,-8.26 16.94,-8.26 14.7,0 29,10.08 29,31.36 v 12.88001 c 0,21.28 -14.28,31.36 -29,31.36 -6.58,0 -13.58,-3.36 -16.94,-8.26 z m 27.49,-67.90001 c 0,-9.66 -6.72,-14 -13.72,-14 -7,0 -13.72,4.34 -13.72,14 v 11.48001 c 0,9.66 6.72,14 13.72,14 7,0 13.72,-4.34 13.72,-14 z"
       id="path19973"
       style="fill:#000000" />
    <path
       inkscape:connector-curvature="0"
       class="cls-1"
       d="m 583.05122,218.24497 c 0,-20 11.48,-33.18 32.2,-33.18 20.72,0 32.2,13.16 32.2,33.18 v 9.24001 c 0,20 -11.48,33.18 -32.2,33.18 -20.72,0 -32.2,-13.16 -32.2,-33.18 z m 45.92,-2.38 c 0,-8.54 -4.76,-14.14 -13.72,-14.14 -8.96,0 -13.72,5.6 -13.72,14.14 v 14.00001 c 0,8.54 4.76,14.14 13.72,14.14 8.96,0 13.72,-5.6 13.72,-14.14 z"
       id="path19975"
       style="fill:#000000" />
    <path
       inkscape:connector-curvature="0"
       class="cls-1"
       d="m 654.98122,235.88498 h 18.48 c 0.7,5.6 7.56,8.12 13.44,8.12 3.64,0 9.1,-0.84 9.1,-5.6 0,-2.8 -2.1,-4.62 -6.44,-5.6 l -15.12,-3.36 c -7.84,-1.82 -17.78,-8.00001 -17.78,-22.12001 0,-14.12 12.74,-22.26 27.58,-22.26 14.56,0 26.88,7 28,23.38 h -18.9 c -1,-4.62 -5,-6.72 -9.66,-6.72 -5.46,0 -8.4,2.1 -8.54,5.46 -0.14,3.36 2.38,4.62 5.6,5.32 l 16.24,3.64 c 7.84,1.82 17.5,7.28 17.5,22.26001 0,16.24 -13.16,22.26 -28.14,22.26 -14.98,0 -30.66,-7.56 -31.36,-24.78 z"
       id="path19977"
       style="fill:#000000" />
    <path
       inkscape:connector-curvature="0"
       class="cls-1"
       d="m 740.74122,229.44498 v 0.42 c 0,8.54 4.76,14.14 13.72,14.14 6.58,0 10.92,-3.08 12.74,-8 h 18.76 c -2.94,15.12 -13.58,24.64 -31.5,24.64 -20.72,0 -32.2,-13.16 -32.2,-33.18 v -9.24001 c 0,-20 11.48,-33.18 32.2,-33.18 20.72,0 32.2,13.16 32.2,33.18 v 11.20001 z m 0,-15.40001 v 0.14 h 27.3 v -0.14 c -0.56,-7.7 -5.18,-12.32 -13.58,-12.32 -8.4,0 -13.02,4.9 -13.72,12.32 z"
       id="path19979"
       style="fill:#000000" />
    <path
       inkscape:connector-curvature="0"
       class="cls-1"
       d="m 841.54122,252.37498 c -3.36,4.9 -10.36,8.26 -16.94,8.26 -14.7,0 -29,-10.08 -29,-31.36 v -12.85001 c 0,-21.28 14.28,-31.36 29,-31.36 6.58,0 13.58,3.36 16.94,8.26 v -32.06 h 18.48 v 98.00001 h -18.48 z m -27.44,-23.8 c 0,9.66 6.72,14 13.72,14 7,0 13.72,-4.34 13.72,-14 v -11.45001 c 0,-9.66 -6.72,-14 -13.72,-14 -7,0 -13.72,4.34 -13.72,14 z"
       id="path19981"
       style="fill:#000000" />
    <path
       inkscape:connector-curvature="0"
       class="cls-1"
       d="M 303.09122,151.37497 A 150.38,150.38 0 0 0 163.27122,1.3749713 V 22.534971 c 66.36,5.39 118.71,61.11 118.71,128.839999 0,67.73 -52.35,123.45001 -118.71,128.84001 v 21.16 a 150.38,150.38 0 0 0 139.82,-150.00001 z"
       id="path19983"
       style="fill:#000000" />
    <path
       inkscape:connector-curvature="0"
       class="cls-1"
       d="m 23.451328,151.37497 c 0,-67.729999 52.349992,-123.449999 118.709892,-128.839999 V 1.3749713 a 150.37,150.37 0 0 0 0,300.0000087 v -21.16 C 75.80132,274.82498 23.451328,219.10497 23.451328,151.37497 Z"
       id="path19985"
       style="fill:#000000" />
    <path
       inkscape:connector-curvature="0"
       class="cls-1"
       d="m 101.27132,62.274971 a 102.9,102.9 0 0 0 -42.47,131.099999 l 18.42,-10.64 a 81.76,81.76 0 0 1 140.4299,-81.08 l 18.43,-10.629999 a 102.9,102.9 0 0 0 -134.8099,-28.75 z"
       id="path19987"
       style="fill:#000000" />
    <path
       inkscape:connector-curvature="0"
       class="cls-1"
       d="m 193.61122,222.20497 a 81.91,81.91 0 0 1 -105.8399,-21.15 l -18.43,10.63 a 102.9,102.9 0 0 0 177.2899,-102.31 l -18.42,10.6 a 81.9,81.9 0 0 1 -34.6,102.23 z"
       id="path19989"
       style="fill:#000000" />
    <path
       inkscape:connector-curvature="0"
       class="cls-1"
       d="m 180.41122,103.37497 a 55.41,55.41 0 0 0 -69.52,11.65 l 18.84,10.88 a 34.29,34.29 0 0 1 56.52,32.63 l 18.84,10.87 a 55.41,55.41 0 0 0 -24.68,-66.03 z"
       id="path19991"
       style="fill:#000000" />
    <path
       inkscape:connector-curvature="0"
       class="cls-1"
       d="m 135.57122,181.07497 a 34.35,34.35 0 0 1 -16.39,-36.88 l -18.8399,-10.82 a 55.4,55.4 0 0 0 94.1999,54.38 l -18.85,-10.88 a 34.33,34.33 0 0 1 -40.12,4.2 z"
       id="path19993"
       style="fill:#000000" />
  </g>
</svg>
