<?xml version="1.0" encoding="UTF-8" standalone="no"?>
<!-- Created with Inkscape (http://www.inkscape.org/) -->

<svg
   xmlns:dc="http://purl.org/dc/elements/1.1/"
   xmlns:cc="http://creativecommons.org/ns#"
   xmlns:rdf="http://www.w3.org/1999/02/22-rdf-syntax-ns#"
   xmlns:svg="http://www.w3.org/2000/svg"
   xmlns="http://www.w3.org/2000/svg"
   xmlns:xlink="http://www.w3.org/1999/xlink"
   xmlns:sodipodi="http://sodipodi.sourceforge.net/DTD/sodipodi-0.dtd"
   xmlns:inkscape="http://www.inkscape.org/namespaces/inkscape"
   width="1280mm"
   height="720mm"
   viewBox="0 0 1280 720"
   version="1.1"
   id="svg8"
   inkscape:export-filename="/home/urania/placeholder_white.png"
   inkscape:export-xdpi="25.4"
   inkscape:export-ydpi="25.4"
   inkscape:version="0.92.5 (2060ec1f9f, 2020-04-08)"
   sodipodi:docname="placeholder.svg">
  <defs
     id="defs2">
    <linearGradient
       inkscape:collect="always"
       id="linearGradient1039">
      <stop
         id="stop1035"
         offset="0"
         style="stop-color:#572b8f;stop-opacity:1" />
      <stop
         style="stop-color:#da9d00;stop-opacity:1"
         offset="1"
         id="stop1037" />
    </linearGradient>
    <linearGradient
       inkscape:collect="always"
       id="linearGradient906">
      <stop
         id="stop902"
         offset="0"
         style="stop-color:#da9d00;stop-opacity:1" />
      <stop
         style="stop-color:#e33180;stop-opacity:1"
         offset="1"
         id="stop904" />
    </linearGradient>
    <linearGradient
       id="linearGradient854-7-2-2"
       inkscape:collect="always">
      <stop
         style="stop-color:#572b8f;stop-opacity:1"
         offset="0"
         id="stop856" />
      <stop
         id="stop852"
         offset="1"
         style="stop-color:#e33180;stop-opacity:1" />
    </linearGradient>
    <linearGradient
       inkscape:collect="always"
       xlink:href="#linearGradient854-7-2-2"
       id="linearGradient835"
       x1="505.36739"
       y1="371.00712"
       x2="695.08238"
       y2="371.00712"
       gradientUnits="userSpaceOnUse"
       gradientTransform="matrix(0.32832079,0,0,0.32832079,105.36857,79.971877)" />
    <linearGradient
       inkscape:collect="always"
       xlink:href="#linearGradient1039"
       id="linearGradient871"
       x1="383.853"
       y1="326.81549"
       x2="505.147"
       y2="326.81549"
       gradientUnits="userSpaceOnUse"
       gradientTransform="matrix(0.97365979,0,0,0.91795406,-194.44174,55.650503)" />
    <linearGradient
       inkscape:collect="always"
       xlink:href="#linearGradient906"
       id="linearGradient835-5"
       x1="578.36127"
       y1="345.36063"
       x2="629.9798"
       y2="404.54483"
       gradientUnits="userSpaceOnUse"
       gradientTransform="matrix(0.68377262,0,0,0.68377262,-89.153843,203.1007)" />
    <linearGradient
       inkscape:collect="always"
       xlink:href="#linearGradient906"
       id="linearGradient871-9"
       x1="383.853"
       y1="326.81549"
       x2="505.147"
       y2="326.81549"
       gradientUnits="userSpaceOnUse"
       gradientTransform="matrix(0.87587092,0,0,0.82575999,65.629392,148.83586)" />
    <linearGradient
       inkscape:collect="always"
       xlink:href="#linearGradient854-7-2-2"
       id="linearGradient1004"
       x1="126.78454"
       y1="453.57791"
       x2="583.37091"
       y2="453.57791"
       gradientUnits="userSpaceOnUse"
       gradientTransform="matrix(1.1525575,0,0,1.1525575,-39.882241,-28.681713)" />
    <linearGradient
       inkscape:collect="always"
       xlink:href="#linearGradient1039"
       id="linearGradient835-1"
       x1="574.86377"
       y1="384.63385"
       x2="614.68463"
       y2="353.29236"
       gradientUnits="userSpaceOnUse"
       gradientTransform="matrix(1.1095129,0,0,1.1095129,-275.20529,-137.73838)" />
    <linearGradient
       inkscape:collect="always"
       xlink:href="#linearGradient906"
       id="linearGradient1095"
       x1="81.435287"
       y1="560.4928"
       x2="620.10901"
       y2="560.4928"
       gradientUnits="userSpaceOnUse"
       gradientTransform="translate(24.870843)" />
  </defs>
  <sodipodi:namedview
     id="base"
     pagecolor="#ffffff"
     bordercolor="#666666"
     borderopacity="1.0"
     inkscape:pageopacity="0.0"
     inkscape:pageshadow="2"
     inkscape:zoom="0.1767767"
     inkscape:cx="2965.8441"
     inkscape:cy="1238.5186"
     inkscape:document-units="mm"
     inkscape:current-layer="layer1"
     showgrid="false"
     inkscape:window-width="1920"
     inkscape:window-height="1016"
     inkscape:window-x="0"
     inkscape:window-y="27"
     inkscape:window-maximized="1" />
  <metadata
     id="metadata5">
    <rdf:RDF>
      <cc:Work
         rdf:about="">
        <dc:format>image/svg+xml</dc:format>
        <dc:type
           rdf:resource="http://purl.org/dc/dcmitype/StillImage" />
        <dc:title></dc:title>
      </cc:Work>
    </rdf:RDF>
  </metadata>
  <g
     inkscape:label="Layer 1"
     inkscape:groupmode="layer"
     id="layer1"
     transform="translate(272.14285,-75.505951)">
    <rect
       y="75.505951"
       x="-272.14285"
       height="720"
       width="1280"
       id="rect992"
       style="opacity:1;fill:#1a030e;fill-opacity:1;stroke:none;stroke-width:1.20000005;stroke-linecap:round;stroke-linejoin:round;stroke-miterlimit:4;stroke-dasharray:none;stroke-opacity:1" />
    <path
       style="fill:url(#linearGradient835);fill-opacity:1;stroke:none;stroke-width:0.18115985"
       inkscape:connector-curvature="0"
       id="path73"
       d="m 322.02903,204.12552 c 3.42356,-0.74164 6.98244,-1.19027 10.57593,-1.33182 0.5449,-0.0212 0.97374,-0.46845 0.97374,-1.01336 0,-0.5449 -0.43025,-0.99285 -0.97374,-1.01338 -3.59349,-0.14224 -7.15092,-0.58948 -10.57737,-1.33181 -0.56542,-0.12172 -1.12802,-0.2498 -1.68917,-0.3878 -7.32503,-1.80594 -11.83917,-5.48932 -14.20838,-11.5935 -2.22211,-5.72285 -2.5355,-12.09876 -2.68062,-18.67578 -0.012,-0.55056 -0.46281,-0.99213 -1.01478,-0.99213 -0.55198,0 -1.00203,0.44157 -1.01479,0.99213 -0.14507,6.57702 -0.45855,12.95439 -2.68062,18.67578 -2.36849,6.10418 -6.88335,9.7868 -14.20837,11.5935 -0.56118,0.138 -1.12375,0.26609 -1.68988,0.3878 -3.42355,0.74233 -6.98244,1.19098 -10.57593,1.33181 -0.54348,0.0212 -0.97373,0.46846 -0.97373,1.01338 0,0.54488 0.43025,0.99213 0.97373,1.01336 3.59349,0.14295 7.1522,0.59018 10.57521,1.33182 0.56542,0.12242 1.12942,0.2498 1.69129,0.3885 7.32502,1.80594 11.83916,5.48932 14.20837,11.59278 2.2221,5.72284 2.53551,12.10021 2.68062,18.67758 0.012,0.55057 0.46281,0.99214 1.01479,0.99214 0.55197,0 1.00203,-0.44157 1.01478,-0.99214 0.14507,-6.57701 0.45855,-12.9551 2.68063,-18.67758 2.36848,-6.10346 6.88334,-9.78626 14.20836,-11.59278 0.56189,-0.1387 1.12587,-0.26536 1.68988,-0.3885 z"
       sodipodi:nodetypes="ccscccccscccccscccccsccccc" />
    <path
       style="fill:url(#linearGradient871);fill-opacity:1;stroke-width:0.33351493"
       inkscape:connector-curvature="0"
       id="path73-3"
       d="m 275.50099,359.84263 c 6.49118,-1.32571 13.23895,-2.12768 20.05234,-2.3807 1.03314,-0.0379 1.84623,-0.83739 1.84623,-1.81145 0,-0.97403 -0.81576,-1.77478 -1.84623,-1.81147 -6.81339,-0.25426 -13.55841,-1.05372 -20.0551,-2.38069 -1.07204,-0.21758 -2.13875,-0.44653 -3.20271,-0.69321 -13.88849,-3.22823 -22.44747,-9.81249 -26.93958,-20.72406 -4.2132,-10.22992 -4.80742,-21.62724 -5.08256,-33.38403 -0.0228,-0.98417 -0.8775,-1.7735 -1.92405,-1.7735 -1.04656,0 -1.8999,0.78933 -1.92409,1.7735 -0.27504,11.75679 -0.86941,23.15671 -5.08256,33.38403 -4.49071,10.91157 -13.05105,17.49448 -26.93955,20.72406 -1.06402,0.24668 -2.13068,0.47564 -3.20407,0.69321 -6.4912,1.32697 -13.23897,2.12894 -20.05236,2.38069 -1.03044,0.0379 -1.84623,0.83741 -1.84623,1.81147 0,0.97402 0.81579,1.77351 1.84623,1.81145 6.81339,0.25554 13.56083,1.05499 20.05099,2.3807 1.07204,0.21883 2.14142,0.44653 3.20674,0.69446 13.88849,3.22823 22.44747,9.81249 26.93958,20.72278 4.21318,10.2299 4.80742,21.62982 5.08254,33.38726 0.0228,0.98416 0.8775,1.77351 1.92407,1.77351 1.04657,0 1.89988,-0.78935 1.92407,-1.77351 0.27507,-11.7568 0.86943,-23.15801 5.08256,-33.38726 4.49073,-10.91029 13.05107,-17.49352 26.93957,-20.72278 1.06535,-0.24794 2.1347,-0.47435 3.20406,-0.69446 z m -33.72856,20.10295 c -1.5618,3.79371 -2.65131,7.70497 -3.41875,11.70984 -0.76748,-4.00355 -1.85562,-7.91613 -3.41874,-11.70984 -4.91595,-11.94008 -14.59951,-19.44266 -29.60538,-22.92905 -1.09886,-0.25553 -2.2018,-0.49206 -3.31005,-0.71851 -1.13244,-0.23277 -2.27559,-0.4478 -3.42413,-0.64769 1.14854,-0.19985 2.289,-0.41487 3.42413,-0.64764 1.10561,-0.22517 2.21253,-0.46048 3.31275,-0.71854 15.00619,-3.48768 24.68802,-10.99027 29.60535,-22.93132 1.5618,-3.79371 2.6513,-7.70368 3.41874,-11.70984 0.7675,4.00616 1.85563,7.91613 3.41876,11.70984 4.91597,11.94138 14.5995,19.44396 29.60537,22.93132 1.10021,0.25806 2.20448,0.49206 3.31005,0.71854 1.13512,0.23274 2.27695,0.44779 3.42548,0.64764 -1.14988,0.19987 -2.29036,0.41747 -3.42548,0.64769 -1.10561,0.22643 -2.20984,0.46423 -3.30872,0.71851 -15.00997,3.48769 -24.69353,10.98897 -29.60948,22.92905 z" />
    <path
       style="fill:url(#linearGradient835-5);fill-opacity:1;stroke:none;stroke-width:0.37728998"
       inkscape:connector-curvature="0"
       id="path73-6"
       d="m 362.07079,461.66752 c 7.13001,-1.54455 14.54188,-2.47891 22.0258,-2.77369 1.13481,-0.0442 2.02794,-0.97562 2.02794,-2.11047 0,-1.13483 -0.89606,-2.06774 -2.02794,-2.11049 -7.48392,-0.29623 -14.89276,-1.22766 -22.02882,-2.77368 -1.17757,-0.2535 -2.34925,-0.52025 -3.51793,-0.80763 -15.25536,-3.76113 -24.65667,-11.43226 -29.59087,-24.14506 -4.62784,-11.91859 -5.28053,-25.1973 -5.58276,-38.89482 -0.0251,-1.14662 -0.96386,-2.06626 -2.11342,-2.06626 -1.14957,0 -2.08686,0.91964 -2.11343,2.06626 -0.30213,13.69752 -0.955,26.97926 -5.58275,38.89482 -4.9327,12.7128 -14.33551,20.38234 -29.59086,24.14506 -1.16873,0.28738 -2.34037,0.55416 -3.51941,0.80763 -7.13001,1.54602 -14.54188,2.48038 -22.0258,2.77368 -1.13187,0.0442 -2.02793,0.97563 -2.02793,2.11049 0,1.1348 0.89606,2.06626 2.02793,2.11047 7.48392,0.29772 14.89541,1.22914 22.0243,2.77369 1.17756,0.25497 2.35218,0.52025 3.52234,0.8091 15.25535,3.76114 24.65666,11.43227 29.59085,24.14354 4.62785,11.91859 5.28056,25.20033 5.58276,38.8986 0.025,1.14663 0.96386,2.06626 2.11343,2.06626 1.14957,0 2.08687,-0.91963 2.11343,-2.06626 0.30213,-13.69752 0.955,-26.98076 5.58277,-38.8986 4.93268,-12.71127 14.3355,-20.3812 29.59084,-24.14354 1.17021,-0.28886 2.34478,-0.55265 3.5194,-0.8091 z"
       sodipodi:nodetypes="ccscccccscccccscccccsccccc" />
    <path
       style="fill:url(#linearGradient871-9);fill-opacity:1;stroke-width:0.30001858"
       inkscape:connector-curvature="0"
       id="path73-3-7"
       d="m 488.37392,422.47668 c 5.83924,-1.19257 11.90931,-1.91399 18.0384,-2.14159 0.92937,-0.0341 1.66081,-0.75329 1.66081,-1.62952 0,-0.87621 -0.73384,-1.59653 -1.66081,-1.62953 -6.12909,-0.22873 -12.19668,-0.9479 -18.04088,-2.1416 -0.96437,-0.19572 -1.92394,-0.40168 -2.88105,-0.62358 -12.49362,-2.90401 -20.19298,-8.82698 -24.23392,-18.64264 -3.79006,-9.20248 -4.32459,-19.45512 -4.5721,-30.03113 -0.0205,-0.88533 -0.78936,-1.59538 -1.73082,-1.59538 -0.94145,0 -1.70908,0.71005 -1.73083,1.59538 -0.24742,10.57601 -0.7821,20.83099 -4.57209,30.03113 -4.0397,9.81566 -11.74029,15.73741 -24.23391,18.64264 -0.95715,0.2219 -1.91669,0.42787 -2.88227,0.62358 -5.83926,1.1937 -11.90932,1.91513 -18.03842,2.1416 -0.92695,0.034 -1.6608,0.75329 -1.6608,1.62953 0,0.8762 0.73385,1.59538 1.6608,1.62952 6.1291,0.22987 12.19886,0.94902 18.03719,2.14159 0.96437,0.19686 1.92635,0.40169 2.88467,0.62472 12.49362,2.90401 20.19298,8.82697 24.23392,18.64149 3.79004,9.20247 4.32459,19.45745 4.57208,30.03403 0.0205,0.88534 0.78937,1.5954 1.73084,1.5954 0.94145,0 1.70906,-0.71006 1.73081,-1.5954 0.24744,-10.576 0.78212,-20.83214 4.5721,-30.03403 4.03971,-9.81452 11.7403,-15.73656 24.23392,-18.64149 0.95835,-0.22305 1.9203,-0.42671 2.88226,-0.62472 z m -30.34106,18.08393 c -1.40494,3.41269 -2.38502,6.93112 -3.07538,10.53377 -0.69041,-3.60146 -1.66926,-7.12108 -3.07539,-10.53377 -4.42223,-10.74089 -13.13322,-17.48995 -26.63198,-20.6262 -0.9885,-0.22985 -1.98066,-0.44263 -2.97761,-0.64634 -1.01871,-0.20939 -2.04705,-0.40282 -3.08024,-0.58264 1.03319,-0.17978 2.05912,-0.37321 3.08024,-0.5826 0.99456,-0.20255 1.99031,-0.41422 2.98003,-0.64636 13.49906,-3.1374 22.2085,-9.88648 26.63196,-20.62822 1.40495,-3.41269 2.38502,-6.92997 3.07539,-10.53376 0.69041,3.60379 1.66925,7.12107 3.0754,10.53376 4.42223,10.74205 13.13321,17.49111 26.63196,20.62822 0.98972,0.23214 1.98308,0.44264 2.97762,0.64636 1.02112,0.20938 2.04826,0.40282 3.08145,0.5826 -1.03441,0.1798 -2.06033,0.37554 -3.08145,0.58264 -0.99457,0.20369 -1.9879,0.41761 -2.97641,0.64634 -13.50246,3.13742 -22.21345,9.88531 -26.63568,20.6262 z" />
    <path
       style="fill:none;fill-opacity:1;stroke:url(#linearGradient1095);stroke-width:5;stroke-linecap:butt;stroke-linejoin:miter;stroke-miterlimit:4;stroke-dasharray:none;stroke-opacity:1"
       d="m 130.42476,508.58665 -17.8914,20.34263 278.8558,160.99744 246.88961,-246.88962 -26.02308,-13.42204"
       id="path996-7"
       inkscape:connector-curvature="0"
       sodipodi:nodetypes="ccccc" />
    <path
       style="fill:none;fill-opacity:1;stroke:url(#linearGradient1004);stroke-width:5;stroke-linecap:butt;stroke-linejoin:miter;stroke-miterlimit:4;stroke-dasharray:none;stroke-opacity:1"
       d="M 177.06626,425.53567 106.49257,496.10924 385.34844,657.10666 632.23805,410.21706 495.1383,331.06245"
       id="path996"
       inkscape:connector-curvature="0"
       sodipodi:nodetypes="ccccc" />
    <path
       style="fill:url(#linearGradient835-1);fill-opacity:1;stroke:none;stroke-width:0.61220366"
       inkscape:connector-curvature="0"
       id="path73-9"
       d="m 456.96714,281.82101 c 11.56941,-2.50625 23.59615,-4.02236 35.73983,-4.50069 1.84139,-0.0717 3.29059,-1.58307 3.29059,-3.42452 0,-1.8414 -1.45397,-3.35519 -3.29059,-3.42456 -12.14368,-0.48067 -24.1655,-1.99205 -35.74472,-4.50067 -1.91076,-0.41133 -3.81197,-0.84417 -5.70831,-1.31049 -24.75386,-6.10293 -40.00875,-18.55038 -48.01516,-39.17859 -7.50929,-19.33952 -8.56838,-40.88601 -9.05878,-63.11208 -0.0406,-1.86055 -1.56399,-3.35279 -3.42931,-3.35279 -1.86532,0 -3.38621,1.49224 -3.42932,3.35279 -0.49025,22.22607 -1.54961,43.77748 -9.05877,63.11208 -8.00396,20.62821 -23.26128,33.07309 -48.01514,39.17859 -1.89642,0.46633 -3.79756,0.89921 -5.71071,1.31049 -11.56941,2.50862 -23.59615,4.02475 -35.73983,4.50067 -1.83661,0.0717 -3.29059,1.58309 -3.29059,3.42456 0,1.84137 1.45398,3.35278 3.29059,3.42452 12.14368,0.48309 24.16981,1.99444 35.73739,4.50069 1.91076,0.41371 3.81673,0.84417 5.71548,1.31287 24.75384,6.10294 40.00873,18.55039 48.01513,39.17614 7.50929,19.33951 8.56841,40.89092 9.05877,63.1182 0.0406,1.86056 1.56399,3.35278 3.42933,3.35278 1.86532,0 3.38622,-1.49222 3.42931,-3.35278 0.49025,-22.22606 1.54961,-43.7799 9.0588,-63.1182 8.00394,-20.62575 23.26128,-33.07124 48.01512,-39.17614 1.89881,-0.46872 3.80472,-0.89675 5.71069,-1.31287 z"
       sodipodi:nodetypes="ccscccccscccccscccccsccccc" />
  </g>
</svg>
