<?xml version="1.0" encoding="UTF-8" standalone="no"?>
<svg
   id="svg4801"
   version="1.1"
   viewBox="0 0 162.59625 22.403675"
   height="22.403675mm"
   width="162.59625mm"
   sodipodi:docname="studio-logo-youchoose.svg"
   inkscape:version="1.1.1 (3bf5ae0d25, 2021-09-20)"
   xmlns:inkscape="http://www.inkscape.org/namespaces/inkscape"
   xmlns:sodipodi="http://sodipodi.sourceforge.net/DTD/sodipodi-0.dtd"
   xmlns="http://www.w3.org/2000/svg"
   xmlns:svg="http://www.w3.org/2000/svg"
   xmlns:rdf="http://www.w3.org/1999/02/22-rdf-syntax-ns#"
   xmlns:cc="http://creativecommons.org/ns#"
   xmlns:dc="http://purl.org/dc/elements/1.1/">
  <sodipodi:namedview
     id="namedview25"
     pagecolor="#ffffff"
     bordercolor="#666666"
     borderopacity="1.0"
     inkscape:pageshadow="2"
     inkscape:pageopacity="0.0"
     inkscape:pagecheckerboard="0"
     inkscape:document-units="mm"
     showgrid="false"
     fit-margin-top="0"
     fit-margin-left="0"
     fit-margin-right="0"
     fit-margin-bottom="0"
     inkscape:zoom="1.1967558"
     inkscape:cx="301.23104"
     inkscape:cy="63.087223"
     inkscape:window-width="1866"
     inkscape:window-height="1016"
     inkscape:window-x="1974"
     inkscape:window-y="27"
     inkscape:window-maximized="1"
     inkscape:current-layer="svg4801" />
  <defs
     id="defs4795" />
  <metadata
     id="metadata4798">
    <rdf:RDF>
      <cc:Work
         rdf:about="">
        <dc:format>image/svg+xml</dc:format>
        <dc:type
           rdf:resource="http://purl.org/dc/dcmitype/StillImage" />
      </cc:Work>
    </rdf:RDF>
  </metadata>
  <path
     id="path876-3-5-6-2-26"
     d="m 23.462274,15.530083 c -0.390656,0.0069 -0.703785,0.32542 -0.703683,0.716144 l 0.0035,5.104861 c 5.68e-4,0.554439 0.603982,0.897874 1.081016,0.615309 l 4.564343,-2.704853 c 0.48202,-0.285574 0.46416,-0.989119 -0.03181,-1.249871 l -4.567723,-2.400007 c -0.106577,-0.05569 -0.225376,-0.08389 -0.345601,-0.08165 z"
     style="color:#000000;font-style:normal;font-variant:normal;font-weight:normal;font-stretch:normal;font-size:medium;line-height:normal;font-family:sans-serif;font-variant-ligatures:normal;font-variant-position:normal;font-variant-caps:normal;font-variant-numeric:normal;font-variant-alternates:normal;font-feature-settings:normal;text-indent:0;text-align:start;text-decoration:none;text-decoration-line:none;text-decoration-style:solid;text-decoration-color:#000000;letter-spacing:normal;word-spacing:normal;text-transform:none;writing-mode:lr-tb;direction:ltr;text-orientation:mixed;dominant-baseline:auto;baseline-shift:baseline;text-anchor:start;white-space:normal;shape-padding:0;clip-rule:nonzero;display:inline;overflow:visible;visibility:visible;opacity:1;isolation:auto;mix-blend-mode:normal;color-interpolation:sRGB;color-interpolation-filters:linearRGB;solid-color:#000000;solid-opacity:1;vector-effect:none;fill:#070707;fill-opacity:1;fill-rule:nonzero;stroke:none;stroke-width:1.43201;stroke-linecap:butt;stroke-linejoin:round;stroke-miterlimit:4;stroke-dasharray:none;stroke-dashoffset:0;stroke-opacity:1;color-rendering:auto;image-rendering:auto;shape-rendering:auto;text-rendering:auto;enable-background:accumulate" />
  <path
     style="color:#000000;font-style:normal;font-variant:normal;font-weight:normal;font-stretch:normal;font-size:medium;line-height:normal;font-family:sans-serif;font-variant-ligatures:normal;font-variant-position:normal;font-variant-caps:normal;font-variant-numeric:normal;font-variant-alternates:normal;font-feature-settings:normal;text-indent:0;text-align:start;text-decoration:none;text-decoration-line:none;text-decoration-style:solid;text-decoration-color:#000000;letter-spacing:normal;word-spacing:normal;text-transform:none;writing-mode:lr-tb;direction:ltr;text-orientation:mixed;dominant-baseline:auto;baseline-shift:baseline;text-anchor:start;white-space:normal;shape-padding:0;clip-rule:nonzero;display:inline;overflow:visible;visibility:visible;opacity:1;isolation:auto;mix-blend-mode:normal;color-interpolation:sRGB;color-interpolation-filters:linearRGB;solid-color:#000000;solid-opacity:1;vector-effect:none;fill:#1a030e;fill-opacity:1;fill-rule:nonzero;stroke:none;stroke-width:1.54528;stroke-linecap:butt;stroke-linejoin:round;stroke-miterlimit:4;stroke-dasharray:none;stroke-dashoffset:0;stroke-opacity:1;color-rendering:auto;image-rendering:auto;shape-rendering:auto;text-rendering:auto;enable-background:accumulate"
     d="m 12.598171,6.3078752 c -0.435708,0.00118 -0.788594,0.3369518 -0.789875,0.7514802 l -0.01831,8.5671236 c -0.0013,0.582573 0.662669,0.946405 1.19153,0.652758 l 8.003753,-4.441525 c 0.53233,-0.296092 0.520698,-1.031766 -0.02076,-1.312485 L 12.979067,6.3984686 C 12.862105,6.3383407 12.731116,6.307185 12.598171,6.3078752 Z"
     id="path876-3-5-6-6-9" />
  <path
     id="path882-3-3-6-5-6-2"
     d="M 14.905536,0.0672083 C 12.572156,0.2839936 10.876292,1.4788444 9.529004,2.8745252 6.834429,5.6658814 5.159211,9.1728884 0.79152804,10.220923 c -1.043603,0.250052 -1.059628,1.655372 -0.02201,1.92691 4.37250996,1.142608 6.03646796,4.647855 8.74602096,7.417247 1.354778,1.384699 3.065467,2.5593 5.41438,2.768985 2.348918,0.209685 4.519199,-0.334846 7.910524,-2.00847 l -0.0038,-2.145787 c -3.634426,1.839925 -5.964743,2.32638 -7.711661,2.170436 -1.746924,-0.155942 -2.8989,-0.939482 -4.076353,-2.142939 -1.942263,-1.985163 -3.7279,-5.162307 -7.250508,-6.997956 3.53511,-1.7835436 5.335685,-4.9787111 7.273705,-6.9863432 1.175893,-1.2181025 2.318955,-2.0124476 4.03609,-2.1719772 1.717133,-0.1595291 4.103825,0.3346571 7.686782,2.2005342 C 22.575724,3.2539555 22.816586,2.711458 23.076262,2.175448 19.291148,0.2042943 17.238653,-0.1495703 14.905269,0.0672083 Z"
     style="color:#000000;font-style:normal;font-variant:normal;font-weight:normal;font-stretch:normal;font-size:medium;line-height:normal;font-family:sans-serif;font-variant-ligatures:normal;font-variant-position:normal;font-variant-caps:normal;font-variant-numeric:normal;font-variant-alternates:normal;font-feature-settings:normal;text-indent:0;text-align:start;text-decoration:none;text-decoration-line:none;text-decoration-style:solid;text-decoration-color:#000000;letter-spacing:normal;word-spacing:normal;text-transform:none;writing-mode:lr-tb;direction:ltr;text-orientation:mixed;dominant-baseline:auto;baseline-shift:baseline;text-anchor:start;white-space:normal;shape-padding:0;clip-rule:nonzero;display:inline;overflow:visible;visibility:visible;opacity:1;isolation:auto;mix-blend-mode:normal;color-interpolation:sRGB;color-interpolation-filters:linearRGB;solid-color:#000000;solid-opacity:1;vector-effect:none;fill:#1a030e;fill-opacity:1;fill-rule:nonzero;stroke:none;stroke-width:2.04282;stroke-linecap:butt;stroke-linejoin:round;stroke-miterlimit:4;stroke-dasharray:none;stroke-dashoffset:0;stroke-opacity:1;color-rendering:auto;image-rendering:auto;shape-rendering:auto;text-rendering:auto;enable-background:accumulate" />
  <path
     id="path1095-1-8"
     d="m 25.831959,0.5817501 c -1.72409,0 -3.125322,1.334274 -3.125322,2.974565 0,1.6402914 1.401232,2.9734059 3.125322,2.9734059 1.724096,0 3.126543,-1.3331145 3.126543,-2.9734059 0,-1.640291 -1.402447,-2.974565 -3.126543,-2.974565 z"
     style="color:#000000;font-style:normal;font-variant:normal;font-weight:normal;font-stretch:normal;font-size:medium;line-height:normal;font-family:sans-serif;font-variant-ligatures:normal;font-variant-position:normal;font-variant-caps:normal;font-variant-numeric:normal;font-variant-alternates:normal;font-feature-settings:normal;text-indent:0;text-align:start;text-decoration:none;text-decoration-line:none;text-decoration-style:solid;text-decoration-color:#000000;letter-spacing:normal;word-spacing:normal;text-transform:none;writing-mode:lr-tb;direction:ltr;text-orientation:mixed;dominant-baseline:auto;baseline-shift:baseline;text-anchor:start;white-space:normal;shape-padding:0;clip-rule:nonzero;display:inline;overflow:visible;visibility:visible;opacity:1;isolation:auto;mix-blend-mode:normal;color-interpolation:sRGB;color-interpolation-filters:linearRGB;solid-color:#000000;solid-opacity:1;vector-effect:none;fill:#1a030e;fill-opacity:1;fill-rule:nonzero;stroke:none;stroke-width:0.394543;stroke-linecap:round;stroke-linejoin:round;stroke-miterlimit:4;stroke-dasharray:none;stroke-dashoffset:0;stroke-opacity:1;color-rendering:auto;image-rendering:auto;shape-rendering:auto;text-rendering:auto;enable-background:accumulate" />
  <path
     id="path887-5-1-3-3"
     style="font-style:normal;font-variant:normal;font-weight:bold;font-stretch:semi-condensed;font-size:40px;line-height:1.25;font-family:'Trade Gothic LT Std';-inkscape-font-specification:'Trade Gothic LT Std Bold Semi-Condensed';letter-spacing:0px;word-spacing:0px;fill:#000000;fill-opacity:1;stroke:none;stroke-width:0.754841"
     d="m 38.675138,0.3018516 h -4.43846 l 5.948153,12.9832414 v 8.816564 h 4.166678 V 13.285093 L 50.299663,0.3018516 h -4.438461 l -3.532654,8.7863688 z" />
  <path
     id="path889-9-5-5-6"
     style="font-style:normal;font-variant:normal;font-weight:bold;font-stretch:semi-condensed;font-size:40px;line-height:1.25;font-family:'Trade Gothic LT Std';-inkscape-font-specification:'Trade Gothic LT Std Bold Semi-Condensed';letter-spacing:0px;word-spacing:0px;fill:#000000;fill-opacity:1;stroke:none;stroke-width:0.754841"
     d="m 49.676181,16.183699 c 0,4.347891 2.234311,6.219893 6.038688,6.219893 3.804429,0 6.03874,-1.872002 6.03874,-6.219893 v -4.589437 c 0,-4.3478486 -2.234311,-6.2198505 -6.03874,-6.2198505 -3.804377,0 -6.038688,1.8720019 -6.038688,6.2198505 z m 3.804378,-5.555616 c 0,-1.2681226 0.905789,-1.9323666 2.23431,-1.9323666 1.32854,0 2.234362,0.664244 2.234362,1.9323666 v 6.521829 c 0,1.268132 -0.905822,1.932375 -2.234362,1.932375 -1.328521,0 -2.23431,-0.664243 -2.23431,-1.932375 z" />
  <path
     id="path891-2-5-6-7"
     style="font-style:normal;font-variant:normal;font-weight:bold;font-stretch:semi-condensed;font-size:40px;line-height:1.25;font-family:'Trade Gothic LT Std';-inkscape-font-specification:'Trade Gothic LT Std Bold Semi-Condensed';letter-spacing:0px;word-spacing:0px;fill:#000000;fill-opacity:1;stroke:none;stroke-width:0.754841"
     d="M 71.491763,5.6763468 V 18.08593 c -0.815254,0.724634 -1.690849,1.479447 -2.47589,1.479447 -1.02657,0 -1.388929,-0.724635 -1.388929,-1.811612 V 5.6763468 H 63.822566 V 18.176499 c 0,3.049565 1.207758,4.227093 3.532655,4.227093 1.570066,0 2.868393,-0.966179 4.257305,-2.173937 v 1.872002 h 3.683605 V 5.6763468 Z" />
  <path
     id="path893-2-4-2-53"
     style="font-style:normal;font-variant:normal;font-weight:bold;font-stretch:semi-condensed;font-size:40px;line-height:1.25;font-family:'Trade Gothic LT Std';-inkscape-font-specification:'Trade Gothic LT Std Bold Semi-Condensed';letter-spacing:0px;word-spacing:0px;fill:#000000;fill-opacity:1;stroke:none;stroke-width:0.754841"
     d="m 83.201504,6.7632904 c 0,-2.4154824 1.0568,-3.0797265 2.71743,-3.0797265 1.66082,0 2.71757,0.6642441 2.71757,3.0797265 v 0.603887 h 4.16671 v -0.06029 C 92.803214,1.9324264 89.965044,0 85.918934,0 81.873014,0 79.034801,1.9324264 79.034801,7.3068874 v 7.7899516 c 0,5.374445 2.838213,7.306837 6.884133,7.306837 4.04611,0 6.88428,-1.932392 6.88428,-7.306837 v -0.905823 h -4.16671 v 1.449286 c 0,2.415516 -1.05675,3.079761 -2.71757,3.079761 -1.66063,0 -2.71743,-0.664245 -2.71743,-3.079761 z" />
  <path
     id="path895-8-7-9-5"
     style="font-style:normal;font-variant:normal;font-weight:bold;font-stretch:semi-condensed;font-size:40px;line-height:1.25;font-family:'Trade Gothic LT Std';-inkscape-font-specification:'Trade Gothic LT Std Bold Semi-Condensed';letter-spacing:0px;word-spacing:0px;fill:#000000;fill-opacity:1;stroke:none;stroke-width:0.754841"
     d="M 99.094114,22.101657 V 9.6920657 c 0.81526,-0.7246253 1.690846,-1.4794723 2.475906,-1.4794723 1.02654,0 1.38887,0.724668 1.38887,1.8116016 v 12.077462 h 3.80443 V 9.6014977 c 0,-3.0495572 -1.20776,-4.2270862 -3.53265,-4.2270862 -1.57009,0 -2.86841,0.9661794 -4.136556,2.1739369 V 0.3018516 h -3.80438 V 22.101657 Z" />
  <path
     id="path897-9-6-1-62"
     style="font-style:normal;font-variant:normal;font-weight:bold;font-stretch:semi-condensed;font-size:40px;line-height:1.25;font-family:'Trade Gothic LT Std';-inkscape-font-specification:'Trade Gothic LT Std Bold Semi-Condensed';letter-spacing:0px;word-spacing:0px;fill:#000000;fill-opacity:1;stroke:none;stroke-width:0.754841"
     d="m 108.83236,16.183699 c 0,4.347891 2.23434,6.219893 6.03874,6.219893 3.80442,0 6.03874,-1.872002 6.03874,-6.219893 v -4.589437 c 0,-4.3478486 -2.23432,-6.2198505 -6.03874,-6.2198505 -3.8044,0 -6.03874,1.8720019 -6.03874,6.2198505 z m 3.80441,-5.555616 c 0,-1.2681226 0.9058,-1.9323666 2.23433,-1.9323666 1.3285,0 2.23432,0.664244 2.23432,1.9323666 v 6.521829 c 0,1.268132 -0.90582,1.932375 -2.23432,1.932375 -1.32853,0 -2.23433,-0.664243 -2.23433,-1.932375 z" />
  <path
     id="path899-7-5-2-9"
     style="font-style:normal;font-variant:normal;font-weight:bold;font-stretch:semi-condensed;font-size:40px;line-height:1.25;font-family:'Trade Gothic LT Std';-inkscape-font-specification:'Trade Gothic LT Std Bold Semi-Condensed';letter-spacing:0px;word-spacing:0px;fill:#000000;fill-opacity:1;stroke:none;stroke-width:0.754841"
     d="m 123.09433,16.183699 c 0,4.347891 2.23434,6.219893 6.03873,6.219893 3.80443,0 6.03874,-1.872002 6.03874,-6.219893 v -4.589437 c 0,-4.3478486 -2.23431,-6.2198505 -6.03874,-6.2198505 -3.80439,0 -6.03873,1.8720019 -6.03873,6.2198505 z m 3.80442,-5.555616 c 0,-1.2681226 0.90579,-1.9323666 2.23431,-1.9323666 1.32852,0 2.23431,0.664244 2.23431,1.9323666 v 6.521829 c 0,1.268132 -0.90579,1.932375 -2.23431,1.932375 -1.32852,0 -2.23431,-0.664243 -2.23431,-1.932375 z" />
  <path
     id="path901-3-6-7-1"
     style="font-style:normal;font-variant:normal;font-weight:bold;font-stretch:semi-condensed;font-size:40px;line-height:1.25;font-family:'Trade Gothic LT Std';-inkscape-font-specification:'Trade Gothic LT Std Bold Semi-Condensed';letter-spacing:0px;word-spacing:0px;fill:#000000;fill-opacity:1;stroke:none;stroke-width:0.754841"
     d="m 148.57401,9.4807154 c -0.93598,-2.47588 -2.8986,-4.1063039 -5.73676,-4.1063039 -2.68725,0 -5.19334,1.4794639 -5.19334,4.5893942 0,5.5254533 7.42764,4.7706243 7.42764,7.9107743 0,0.905789 -0.69445,1.449252 -1.8418,1.449252 -1.50966,0 -2.44565,-0.996357 -2.77778,-2.536245 l -3.41191,0.935983 c 1.8418,4.106347 3.89496,4.680022 6.18969,4.680022 3.17033,0 5.46507,-1.721043 5.46507,-4.98194 0,-4.891372 -7.42764,-4.951762 -7.42764,-7.4880413 0,-0.8453903 0.66424,-1.4794903 1.53988,-1.4794903 1.14736,0 2.11353,0.724669 2.62681,2.2343536 z" />
  <path
     d="m 38.675138,0.3018516 h -4.43846 l 5.948153,12.9832414 v 8.816564 h 4.166678 V 13.285093 L 50.299663,0.3018516 h -4.438461 l -3.532654,8.7863688 z"
     style="font-style:normal;font-variant:normal;font-weight:bold;font-stretch:semi-condensed;font-size:40px;line-height:1.25;font-family:'Trade Gothic LT Std';-inkscape-font-specification:'Trade Gothic LT Std Bold Semi-Condensed';letter-spacing:0px;word-spacing:0px;fill:#1a030e;fill-opacity:1;stroke:none;stroke-width:0.754841"
     id="path4835" />
  <path
     d="m 49.676181,16.183699 c 0,4.347891 2.234311,6.219893 6.038688,6.219893 3.804429,0 6.03874,-1.872002 6.03874,-6.219893 v -4.589437 c 0,-4.3478486 -2.234311,-6.2198505 -6.03874,-6.2198505 -3.804377,0 -6.038688,1.8720019 -6.038688,6.2198505 z m 3.804378,-5.555616 c 0,-1.2681226 0.905789,-1.9323666 2.23431,-1.9323666 1.32854,0 2.234362,0.664244 2.234362,1.9323666 v 6.521829 c 0,1.268132 -0.905822,1.932375 -2.234362,1.932375 -1.328521,0 -2.23431,-0.664243 -2.23431,-1.932375 z"
     style="font-style:normal;font-variant:normal;font-weight:bold;font-stretch:semi-condensed;font-size:40px;line-height:1.25;font-family:'Trade Gothic LT Std';-inkscape-font-specification:'Trade Gothic LT Std Bold Semi-Condensed';letter-spacing:0px;word-spacing:0px;fill:#1a030e;fill-opacity:1;stroke:none;stroke-width:0.754841"
     id="path4837" />
  <path
     d="m 83.201504,6.7632904 c 0,-2.4154824 1.0568,-3.0797265 2.71743,-3.0797265 1.66082,0 2.71757,0.6642441 2.71757,3.0797265 v 0.603887 h 4.16671 v -0.06029 C 92.803214,1.9324264 89.965044,0 85.918934,0 81.873014,0 79.034801,1.9324264 79.034801,7.3068874 v 7.7899516 c 0,5.374445 2.838213,7.306837 6.884133,7.306837 4.04611,0 6.88428,-1.932392 6.88428,-7.306837 v -0.905823 h -4.16671 v 1.449286 c 0,2.415516 -1.05675,3.079761 -2.71757,3.079761 -1.66063,0 -2.71743,-0.664245 -2.71743,-3.079761 z"
     style="font-style:normal;font-variant:normal;font-weight:bold;font-stretch:semi-condensed;font-size:40px;line-height:1.25;font-family:'Trade Gothic LT Std';-inkscape-font-specification:'Trade Gothic LT Std Bold Semi-Condensed';letter-spacing:0px;word-spacing:0px;fill:#1a030e;fill-opacity:1;stroke:none;stroke-width:0.754841"
     id="path4841" />
  <path
     d="M 99.094114,22.101657 V 9.6920657 c 0.81526,-0.7246253 1.690846,-1.4794723 2.475906,-1.4794723 1.02654,0 1.38887,0.724668 1.38887,1.8116016 v 12.077462 h 3.80443 V 9.6014977 c 0,-3.0495572 -1.20776,-4.2270862 -3.53265,-4.2270862 -1.57009,0 -2.86841,0.9661794 -4.136556,2.1739369 V 0.3018516 h -3.80438 V 22.101657 Z"
     style="font-style:normal;font-variant:normal;font-weight:bold;font-stretch:semi-condensed;font-size:40px;line-height:1.25;font-family:'Trade Gothic LT Std';-inkscape-font-specification:'Trade Gothic LT Std Bold Semi-Condensed';letter-spacing:0px;word-spacing:0px;fill:#1a030e;fill-opacity:1;stroke:none;stroke-width:0.754841"
     id="path4843" />
  <path
     d="m 108.83236,16.183699 c 0,4.347891 2.23434,6.219893 6.03874,6.219893 3.80442,0 6.03874,-1.872002 6.03874,-6.219893 v -4.589437 c 0,-4.3478486 -2.23432,-6.2198505 -6.03874,-6.2198505 -3.8044,0 -6.03874,1.8720019 -6.03874,6.2198505 z m 3.80441,-5.555616 c 0,-1.2681226 0.9058,-1.9323666 2.23433,-1.9323666 1.3285,0 2.23432,0.664244 2.23432,1.9323666 v 6.521829 c 0,1.268132 -0.90582,1.932375 -2.23432,1.932375 -1.32853,0 -2.23433,-0.664243 -2.23433,-1.932375 z"
     style="font-style:normal;font-variant:normal;font-weight:bold;font-stretch:semi-condensed;font-size:40px;line-height:1.25;font-family:'Trade Gothic LT Std';-inkscape-font-specification:'Trade Gothic LT Std Bold Semi-Condensed';letter-spacing:0px;word-spacing:0px;fill:#1a030e;fill-opacity:1;stroke:none;stroke-width:0.754841"
     id="path4845" />
  <path
     d="m 123.09433,16.183699 c 0,4.347891 2.23434,6.219893 6.03873,6.219893 3.80443,0 6.03874,-1.872002 6.03874,-6.219893 v -4.589437 c 0,-4.3478486 -2.23431,-6.2198505 -6.03874,-6.2198505 -3.80439,0 -6.03873,1.8720019 -6.03873,6.2198505 z m 3.80442,-5.555616 c 0,-1.2681226 0.90579,-1.9323666 2.23431,-1.9323666 1.32852,0 2.23431,0.664244 2.23431,1.9323666 v 6.521829 c 0,1.268132 -0.90579,1.932375 -2.23431,1.932375 -1.32852,0 -2.23431,-0.664243 -2.23431,-1.932375 z"
     style="font-style:normal;font-variant:normal;font-weight:bold;font-stretch:semi-condensed;font-size:40px;line-height:1.25;font-family:'Trade Gothic LT Std';-inkscape-font-specification:'Trade Gothic LT Std Bold Semi-Condensed';letter-spacing:0px;word-spacing:0px;fill:#1a030e;fill-opacity:1;stroke:none;stroke-width:0.754841"
     id="path4847" />
  <path
     d="m 148.57401,9.4807154 c -0.93598,-2.47588 -2.8986,-4.1063039 -5.73676,-4.1063039 -2.68725,0 -5.19334,1.4794639 -5.19334,4.5893942 0,5.5254533 7.42764,4.7706243 7.42764,7.9107743 0,0.905789 -0.69445,1.449252 -1.8418,1.449252 -1.50966,0 -2.44565,-0.996357 -2.77778,-2.536245 l -3.41191,0.935983 c 1.8418,4.106347 3.89496,4.680022 6.18969,4.680022 3.17033,0 5.46507,-1.721043 5.46507,-4.98194 0,-4.891372 -7.42764,-4.951762 -7.42764,-7.4880413 0,-0.8453903 0.66424,-1.4794903 1.53988,-1.4794903 1.14736,0 2.11353,0.724669 2.62681,2.2343536 z"
     style="font-style:normal;font-variant:normal;font-weight:bold;font-stretch:semi-condensed;font-size:40px;line-height:1.25;font-family:'Trade Gothic LT Std';-inkscape-font-specification:'Trade Gothic LT Std Bold Semi-Condensed';letter-spacing:0px;word-spacing:0px;fill:#1a030e;fill-opacity:1;stroke:none;stroke-width:0.754841"
     id="path4849" />
  <path
     d="m 162.59625,14.794787 v -3.834573 c 0,-3.3514916 -2.50605,-5.5858025 -6.03871,-5.5858025 -3.62325,0 -6.03873,2.2343109 -6.03873,5.8273465 v 5.374479 c 0,3.593045 2.41548,5.827355 6.03873,5.827355 3.83457,0 5.85759,-1.992783 6.03871,-5.374461 h -3.8044 c 0,1.268148 -0.63405,2.294701 -2.23431,2.294701 -1.26815,0 -2.23436,-0.724617 -2.23436,-2.355075 v -2.17397 z m -8.27307,-3.07976 v -0.90579 c 0,-1.4492766 0.69449,-2.3551166 2.23436,-2.3551166 1.53987,0 2.23431,0.90584 2.23431,2.3551166 v 0.90579 z"
     style="font-style:normal;font-variant:normal;font-weight:bold;font-stretch:semi-condensed;font-size:40px;line-height:1.25;font-family:'Trade Gothic LT Std';-inkscape-font-specification:'Trade Gothic LT Std Bold Semi-Condensed';letter-spacing:0px;word-spacing:0px;fill:#1a030e;fill-opacity:1;stroke:none;stroke-width:0.754841"
     id="path4851" />
</svg>
